<?xml version="1.0" encoding="utf-8"?>
<!-- Generator: Adobe Illustrator 18.0.0, SVG Export Plug-In . SVG Version: 6.00 Build 0)  -->
<!DOCTYPE svg PUBLIC "-//W3C//DTD SVG 1.1//EN" "http://www.w3.org/Graphics/SVG/1.1/DTD/svg11.dtd">
<svg version="1.1" xmlns="http://www.w3.org/2000/svg" xmlns:xlink="http://www.w3.org/1999/xlink" x="0px" y="0px"
	 viewBox="0 0 48 48" enable-background="new 0 0 48 48" xml:space="preserve">
<g id="Layer_1">
</g>
<g id="scaning_identity">
</g>
<g id="finding-identity">
</g>
<g id="finger-security-open">
</g>
<g id="finger-security">
</g>
<g id="searching">
</g>
<g id="canceled">
</g>
<g id="success">
</g>
<g id="finger-add">
</g>
<g id="finger-minus">
</g>
<g id="finger-press">
</g>
<g id="_x35_f-long-tap">
</g>
<g id="_x35_f-pinch">
</g>
<g id="_x35_f-stretch">
</g>
<g id="_x35_f-swipe-up">
</g>
<g id="_x35_f-swipe-up_1_">
</g>
<g id="_x35_f-swipe-down">
</g>
<g id="_x35_f-swipe-right">
</g>
<g id="_x35_f-swipe-left">
</g>
<g id="_x35_f-drag-left-right">
</g>
<g id="_x35_f-drag-up-down">
</g>
<g id="_x35_f-tap-hold">
</g>
<g id="_x35_f-pinchout">
</g>
<g id="_x35_f-pinchin">
</g>
<g id="_x35_f-tap-down">
</g>
<g id="_x35_f-tap-up">
</g>
<g id="_x35_f-drag">
</g>
<g id="_x35_f-double-tap">
</g>
<g id="_x35_f-press-hold">
</g>
<g id="_x35_f-press">
</g>
<g id="_x35_f-tap">
</g>
<g id="_x35_finger">
</g>
<g id="_x34_f_horizontal_dragin">
</g>
<g id="_x34_f-horizontal-dragout">
</g>
<g id="_x34_f-tap-down">
</g>
<g id="_x34_f-tap-up">
</g>
<g id="_x34_f-drag-left-right">
</g>
<g id="_x34_f-drag-up-down">
</g>
<g id="_x34_f-swipe-up">
</g>
<g id="_x34_f-swipe-down">
</g>
<g id="_x34_f-swipe-left">
</g>
<g id="_x33_f-drag">
</g>
<g id="_x33_f-double-tap_1_">
</g>
<g id="_x33_f-press-hold_1_">
</g>
<g id="_x33_f-press_1_">
</g>
<g id="_x33_fingers_1_">
</g>
<g id="_x32_f-tag-down">
</g>
<g id="_x32_f-drag-left-right_1_">
</g>
<g id="_x32_f-drag-up-down">
</g>
<g id="_x32_f-swipe-up_1_">
</g>
<g id="_x32_f-swipe-down_1_">
</g>
<g id="_x33_f-horizontal-drag">
</g>
<g id="_x33_f-horizotal-dragout">
</g>
<g id="_x32_f-swipe-right_1_">
</g>
<g id="_x32_f-swipe-left_1_">
</g>
<g id="_x33_f-tap-down">
</g>
<g id="_x33_f-tap-up">
</g>
<g id="_x33_f-double-tap">
</g>
<g id="_x33_f-press-hold">
</g>
<g id="_x33_f-press">
</g>
<g id="_x33_fingers">
</g>
<g id="_x32_f-horizotal-drag">
</g>
<g id="_x32_f-tap-down_1_">
</g>
<g id="_x32_f-drag-left-right">
</g>
<g id="_x32_fdrag-up-down">
</g>
<g id="_x32_f-swipe-up">
</g>
<g id="_x32_f-swipe-down">
</g>
<g id="_x32_f-swipe-right">
</g>
<g id="_x32_f-swipe-left">
</g>
<g id="pinch">
</g>
<g id="stretch">
</g>
<g id="_x32_f-tap-down">
</g>
<g id="_x32_f-tap-up">
</g>
<g id="_x32_f-tap-hold">
</g>
<g id="_x32_f-drag">
</g>
<g id="_x32_f-double-tap">
	<g>
		<path fill="none" stroke="#080808" stroke-width="2" stroke-miterlimit="10" d="M24.4427738,26.0200729V11.6943626
			c0-1.2492418,1.0127106-2.2619524,2.2619534-2.2619524h0.0000038c1.2492409,0,2.2619514,1.0127106,2.2619514,2.2619524v18.0956345
			"/>
		<path fill="none" stroke="#080808" stroke-width="2" stroke-miterlimit="10" d="M28.9666824,29.7899971v-4.5239086
			c0-1.2492409,1.0127106-2.2619514,2.2619514-2.2619514h0.0000057c1.249239,0,2.2619495,1.0127106,2.2619495,2.2619514v5.2778931"
			/>
		<path fill="none" stroke="#080808" stroke-width="2" stroke-miterlimit="10" d="M19.9188671,35.0678902V14.7103004
			c0-1.2492409,1.0127106-2.2619514,2.2619514-2.2619514h0.0000038c1.2492428,0,2.2619514,1.0127106,2.2619514,2.2619514v15.0796967
			"/>
		<path fill="none" stroke="#080808" stroke-width="2" stroke-miterlimit="10" d="M19.9188671,47.1316452
			c0-2.356205-5.9690456-6.6916161-5.1836452-11.8124275c0.471241-1.7592964,1.3237171-4.864954,2.2933693-5.6548862
			c0.7749996-0.6313553,1.7592983-0.8153305,2.890276-0.7225685"/>
		<path fill="none" stroke="#080808" stroke-width="2" stroke-linejoin="round" stroke-miterlimit="10" d="M33.4905891,26.7740574
			c0,0,0.9575157-0.8556252,2.2619591-0.7539825c1.2095146,0.0942459,1.7059059,1.0614891,1.9556427,2.2855148
			c1.9085236,9.3541203-1.9556465,17.0353413-1.9556465,18.8260555"/>
	</g>
	<path fill="none" stroke="#080808" stroke-width="2" stroke-linecap="round" stroke-miterlimit="10" d="M31.6646557,14.3713236
		c0.6758366-0.9734049,1.0719509-2.1555319,1.0719509-3.4309435c0-3.3313112-2.7005672-6.0318775-6.0318775-6.0318775
		c-2.5704231,0-4.7593441,1.6106391-5.6279182,3.8754463c-2.8033733,0.5192385-4.9278679,2.9726343-4.9278679,5.9263544
		c0,1.3172159,0.4222202,2.5358191,1.1387043,3.5278521"/>
	<path fill="none" stroke="#080808" stroke-width="2" stroke-linecap="round" stroke-miterlimit="10" d="M34.495903,15.6527843
		c3.8998489-6.4161634-1.4012566-14.4426661-8.8616123-13.5709352c-2.1438637,0.2505071-3.7700615,1.3712792-5.3814049,2.7217157
		c-1.6669407,1.3970304-3.7381096,2.5648203-5.1550446,4.2235265c-2.6950922,3.1549568-2.4651852,8.0564909,0.0410585,11.247262"/>
</g>
<g id="_x32_f-tap">
</g>
<g id="_x32_f-drag-twoside">
</g>
<g id="_x32_f-press">
</g>
<g id="sf-tap">
</g>
<g id="_x32_fingers">
</g>
<g id="if-tap-down">
</g>
<g id="if-tap-up">
</g>
<g id="_x31_f-tap-hold">
</g>
<g id="_x31_f-tag-drag">
</g>
<g id="_x31_f-swipe-up">
</g>
<g id="_x31_f-swipe-down">
</g>
<g id="_x31_f-swipe-right">
</g>
<g id="_x31_f-swipe-left">
</g>
<g id="horizontal-drag">
</g>
<g id="drag-left">
</g>
<g id="drag-up-down">
</g>
<g id="drag-down_1_">
</g>
<g id="drag-down">
</g>
<g id="press_hold">
</g>
<g id="double_tap">
</g>
<g id="tap">
</g>
<g id="press">
</g>
<g id="swipe-left-h">
</g>
<g id="show">
</g>
<g id="swipe-right-h">
</g>
<g id="_x34_f-swipe-right">
</g>
</svg>
