<?xml version="1.0" encoding="utf-8"?>
<!-- Generator: Adobe Illustrator 18.0.0, SVG Export Plug-In . SVG Version: 6.00 Build 0)  -->
<!DOCTYPE svg PUBLIC "-//W3C//DTD SVG 1.1//EN" "http://www.w3.org/Graphics/SVG/1.1/DTD/svg11.dtd">
<svg version="1.1" xmlns="http://www.w3.org/2000/svg" xmlns:xlink="http://www.w3.org/1999/xlink" x="0px" y="0px"
	 viewBox="0 0 48 48" enable-background="new 0 0 48 48" xml:space="preserve">
<g id="Layer_1">
</g>
<g id="scaning_identity">
</g>
<g id="finding-identity">
	<g>
		<g>
			<path fill="none" stroke="#080808" stroke-width="2" stroke-linecap="round" stroke-miterlimit="10" d="M21.5476799,43.7503357
				c4.651144-4.9176483,6.5558968-11.4735451,6.1129322-21.263092c-0.0884686-1.9551468-1.5865822-3.5437279-3.5437279-3.5437279
				s-3.5437279,1.5865822-3.5437279,3.5437279c0,6.4881268,2.0819397,11.1184464-7.3894911,18.2388344"/>
			<path fill="none" stroke="#080808" stroke-width="2" stroke-linecap="round" stroke-miterlimit="10" d="M26.5088997,43.7503357
				c5.3598881-7.0881805,4.6954403-21.263092,4.6954403-21.263092c0-3.9142933-3.1731625-7.0874557-7.0874557-7.0874557
				s-7.0874577,3.1731625-7.0874577,7.0874557c0,5.1974678,1.8604584,10.9412613-7.1706181,15.7729492"/>
			<path fill="none" stroke="#080808" stroke-width="2" stroke-linecap="round" stroke-miterlimit="10" d="M31.7482719,42.3381538
				c2.999794-8.2452011,2.999794-19.8509102,2.999794-19.8509102c0-5.8714409-4.7597427-10.6311836-10.6311817-10.6311836
				s-11.1627436,4.7249718-10.6311846,10.6311836c0.4447756,4.9419479,1.9933472,10.0194588-6.1486697,11.7832527"/>
			<path fill="none" stroke="#080808" stroke-width="2" stroke-linecap="round" stroke-miterlimit="10" d="M24.1168842,22.4872437
				c0,6.580267,0.9745083,12.2701569-7.1239071,20.0389214"/>
			<path fill="none" stroke="#080808" stroke-width="2" stroke-linecap="round" stroke-miterlimit="10" d="M35.8201141,40.3853302
				c1.5936203-6.0500069,2.4716797-14.8795834,2.4716797-17.8980865c0-3.9142933-1.5865784-7.4580212-4.1517334-10.0231752
				s-6.1088829-4.1517363-10.0231762-4.1517363s-7.4580231,1.5865812-10.0231771,4.1517363
				s-4.1517353,6.108882-4.1517353,10.0231752c0,1.4381104,0.2141609,2.8262024,0.6123295,4.1341209
				c0.2737026,0.8990669-0.2144585,1.8519974-1.0992775,2.1687469l-0.0000029,0.0000019
				c-0.965867,0.3457623-2.0100341-0.2012348-2.3059893-1.1835079c-0.4883289-1.62076-0.7507877-3.3394108-0.7507877-5.1193619
				c0-4.8928661,1.9832258-9.3225269,5.1896696-12.5289698s7.6361027-5.1896691,12.5289707-5.1896691
				s9.3225269,1.9832263,12.5289707,5.1896691c3.20644,3.2064428,5.1896667,7.6361036,5.1896667,12.5289698
				c0,3.2333431-0.3041763,8.9167709-1.3968086,13.8147964"/>
		</g>
	</g>
	<path fill="none" stroke="#080808" stroke-width="2" stroke-linecap="round" stroke-miterlimit="10" d="M45.9824371,37.4538155
		v7.5398483c0,0.8328285-0.6751404,1.5079689-1.5079689,1.5079689h-7.5398445"/>
	<path fill="none" stroke="#080808" stroke-width="2" stroke-linecap="round" stroke-miterlimit="10" d="M36.9346237,2.7705221
		h7.5398445c0.8328285,0,1.5079689,0.6751409,1.5079689,1.5079694v7.5398469"/>
	<path fill="none" stroke="#080808" stroke-width="2" stroke-linecap="round" stroke-miterlimit="10" d="M2.2513282,11.8183384
		V4.2784915c0-0.8328285,0.6751409-1.5079694,1.5079694-1.5079694h7.5398464"/>
	<path fill="none" stroke="#080808" stroke-width="2" stroke-linecap="round" stroke-miterlimit="10" d="M11.2991438,46.5016327
		H3.7592976c-0.8328285,0-1.5079694-0.6751404-1.5079694-1.5079689v-7.5398483"/>
</g>
<g id="finger-security-open">
</g>
<g id="finger-security">
</g>
<g id="searching">
</g>
<g id="canceled">
</g>
<g id="success">
</g>
<g id="finger-add">
</g>
<g id="finger-minus">
</g>
<g id="finger-press">
</g>
<g id="_x35_f-long-tap">
</g>
<g id="_x35_f-pinch">
</g>
<g id="_x35_f-stretch">
</g>
<g id="_x35_f-swipe-up">
</g>
<g id="_x35_f-swipe-up_1_">
</g>
<g id="_x35_f-swipe-down">
</g>
<g id="_x35_f-swipe-right">
</g>
<g id="_x35_f-swipe-left">
</g>
<g id="_x35_f-drag-left-right">
</g>
<g id="_x35_f-drag-up-down">
</g>
<g id="_x35_f-tap-hold">
</g>
<g id="_x35_f-pinchout">
</g>
<g id="_x35_f-pinchin">
</g>
<g id="_x35_f-tap-down">
</g>
<g id="_x35_f-tap-up">
</g>
<g id="_x35_f-drag">
</g>
<g id="_x35_f-double-tap">
</g>
<g id="_x35_f-press-hold">
</g>
<g id="_x35_f-press">
</g>
<g id="_x35_f-tap">
</g>
<g id="_x35_finger">
</g>
<g id="_x34_f_horizontal_dragin">
</g>
<g id="_x34_f-horizontal-dragout">
</g>
<g id="_x34_f-tap-down">
</g>
<g id="_x34_f-tap-up">
</g>
<g id="_x34_f-drag-left-right">
</g>
<g id="_x34_f-drag-up-down">
</g>
<g id="_x34_f-swipe-up">
</g>
<g id="_x34_f-swipe-down">
</g>
<g id="_x34_f-swipe-left">
</g>
<g id="_x33_f-drag">
</g>
<g id="_x33_f-double-tap_1_">
</g>
<g id="_x33_f-press-hold_1_">
</g>
<g id="_x33_f-press_1_">
</g>
<g id="_x33_fingers_1_">
</g>
<g id="_x32_f-tag-down">
</g>
<g id="_x32_f-drag-left-right_1_">
</g>
<g id="_x32_f-drag-up-down">
</g>
<g id="_x32_f-swipe-up_1_">
</g>
<g id="_x32_f-swipe-down_1_">
</g>
<g id="_x33_f-horizontal-drag">
</g>
<g id="_x33_f-horizotal-dragout">
</g>
<g id="_x32_f-swipe-right_1_">
</g>
<g id="_x32_f-swipe-left_1_">
</g>
<g id="_x33_f-tap-down">
</g>
<g id="_x33_f-tap-up">
</g>
<g id="_x33_f-double-tap">
</g>
<g id="_x33_f-press-hold">
</g>
<g id="_x33_f-press">
</g>
<g id="_x33_fingers">
</g>
<g id="_x32_f-horizotal-drag">
</g>
<g id="_x32_f-tap-down_1_">
</g>
<g id="_x32_f-drag-left-right">
</g>
<g id="_x32_fdrag-up-down">
</g>
<g id="_x32_f-swipe-up">
</g>
<g id="_x32_f-swipe-down">
</g>
<g id="_x32_f-swipe-right">
</g>
<g id="_x32_f-swipe-left">
</g>
<g id="pinch">
</g>
<g id="stretch">
</g>
<g id="_x32_f-tap-down">
</g>
<g id="_x32_f-tap-up">
</g>
<g id="_x32_f-tap-hold">
</g>
<g id="_x32_f-drag">
</g>
<g id="_x32_f-double-tap">
</g>
<g id="_x32_f-tap">
</g>
<g id="_x32_f-drag-twoside">
</g>
<g id="_x32_f-press">
</g>
<g id="sf-tap">
</g>
<g id="_x32_fingers">
</g>
<g id="if-tap-down">
</g>
<g id="if-tap-up">
</g>
<g id="_x31_f-tap-hold">
</g>
<g id="_x31_f-tag-drag">
</g>
<g id="_x31_f-swipe-up">
</g>
<g id="_x31_f-swipe-down">
</g>
<g id="_x31_f-swipe-right">
</g>
<g id="_x31_f-swipe-left">
</g>
<g id="horizontal-drag">
</g>
<g id="drag-left">
</g>
<g id="drag-up-down">
</g>
<g id="drag-down_1_">
</g>
<g id="drag-down">
</g>
<g id="press_hold">
</g>
<g id="double_tap">
</g>
<g id="tap">
</g>
<g id="press">
</g>
<g id="swipe-left-h">
</g>
<g id="show">
</g>
<g id="swipe-right-h">
</g>
<g id="_x34_f-swipe-right">
</g>
</svg>
