<?xml version="1.0" encoding="utf-8"?>
<!-- Generator: Adobe Illustrator 18.0.0, SVG Export Plug-In . SVG Version: 6.00 Build 0)  -->
<!DOCTYPE svg PUBLIC "-//W3C//DTD SVG 1.1//EN" "http://www.w3.org/Graphics/SVG/1.1/DTD/svg11.dtd">
<svg version="1.1" xmlns="http://www.w3.org/2000/svg" xmlns:xlink="http://www.w3.org/1999/xlink" x="0px" y="0px"
	 viewBox="0 0 48 48" enable-background="new 0 0 48 48" xml:space="preserve">
<g id="Layer_1">
</g>
<g id="scaning_identity">
</g>
<g id="finding-identity">
</g>
<g id="finger-security-open">
</g>
<g id="finger-security">
</g>
<g id="searching">
</g>
<g id="canceled">
</g>
<g id="success">
</g>
<g id="finger-add">
</g>
<g id="finger-minus">
</g>
<g id="finger-press">
</g>
<g id="_x35_f-long-tap">
</g>
<g id="_x35_f-pinch">
</g>
<g id="_x35_f-stretch">
</g>
<g id="_x35_f-swipe-up">
</g>
<g id="_x35_f-swipe-up_1_">
</g>
<g id="_x35_f-swipe-down">
</g>
<g id="_x35_f-swipe-right">
</g>
<g id="_x35_f-swipe-left">
</g>
<g id="_x35_f-drag-left-right">
</g>
<g id="_x35_f-drag-up-down">
</g>
<g id="_x35_f-tap-hold">
</g>
<g id="_x35_f-pinchout">
</g>
<g id="_x35_f-pinchin">
</g>
<g id="_x35_f-tap-down">
</g>
<g id="_x35_f-tap-up">
</g>
<g id="_x35_f-drag">
</g>
<g id="_x35_f-double-tap">
</g>
<g id="_x35_f-press-hold">
</g>
<g id="_x35_f-press">
</g>
<g id="_x35_f-tap">
</g>
<g id="_x35_finger">
</g>
<g id="_x34_f_horizontal_dragin">
</g>
<g id="_x34_f-horizontal-dragout">
</g>
<g id="_x34_f-tap-down">
</g>
<g id="_x34_f-tap-up">
</g>
<g id="_x34_f-drag-left-right">
</g>
<g id="_x34_f-drag-up-down">
</g>
<g id="_x34_f-swipe-up">
</g>
<g id="_x34_f-swipe-down">
</g>
<g id="_x34_f-swipe-left">
</g>
<g id="_x33_f-drag">
</g>
<g id="_x33_f-double-tap_1_">
</g>
<g id="_x33_f-press-hold_1_">
</g>
<g id="_x33_f-press_1_">
</g>
<g id="_x33_fingers_1_">
</g>
<g id="_x32_f-tag-down">
</g>
<g id="_x32_f-drag-left-right_1_">
</g>
<g id="_x32_f-drag-up-down">
</g>
<g id="_x32_f-swipe-up_1_">
</g>
<g id="_x32_f-swipe-down_1_">
</g>
<g id="_x33_f-horizontal-drag">
</g>
<g id="_x33_f-horizotal-dragout">
</g>
<g id="_x32_f-swipe-right_1_">
</g>
<g id="_x32_f-swipe-left_1_">
</g>
<g id="_x33_f-tap-down">
</g>
<g id="_x33_f-tap-up">
</g>
<g id="_x33_f-double-tap">
</g>
<g id="_x33_f-press-hold">
</g>
<g id="_x33_f-press">
</g>
<g id="_x33_fingers">
</g>
<g id="_x32_f-horizotal-drag">
</g>
<g id="_x32_f-tap-down_1_">
</g>
<g id="_x32_f-drag-left-right">
</g>
<g id="_x32_fdrag-up-down">
</g>
<g id="_x32_f-swipe-up">
</g>
<g id="_x32_f-swipe-down">
</g>
<g id="_x32_f-swipe-right">
</g>
<g id="_x32_f-swipe-left">
</g>
<g id="pinch">
</g>
<g id="stretch">
	<g>
		<g>
			<path fill="none" stroke="#080808" stroke-width="2" stroke-miterlimit="10" d="M27.1561699,27.5087051l1.2039795-3.6067715
				c0.332468-1.2041874,1.5781746-1.9108562,2.782362-1.5783863l0.0000057,0.0000019
				c1.2041855,0.332468,1.9108543,1.5781746,1.5783844,2.782362l-0.7906895,2.8638458"/>
			<path fill="none" stroke="#080808" stroke-width="2" stroke-miterlimit="10" d="M31.7175865,28.7398758l0.8026543-2.9071693
				c0.3324661-1.2041874,1.5781746-1.9108562,2.7823639-1.5783863l0.0000038,0.0000019
				c1.2041855,0.332468,1.9108543,1.5781746,1.5783844,2.782362l-0.8886185,3.2185364"/>
			<path fill="none" stroke="#080808" stroke-width="2" stroke-miterlimit="10" d="M19.6337509,44.1762619
				c0.9531479-3.4522629-5.7582588-5.2010155-6.6271257-12.2410679c-0.4716225-3.8213615-1.0160952-6.0811596-0.4616289-7.0042439
				c0.6463537-1.0760612,2.469202-1.2017422,3.5871544,0.1746273c0.5864925,0.7220612,0.7243881,1.540062,1.2929745,2.6500912
				c1.2272396,2.395895,3.4123268,2.1558285,3.4123268,2.1558285l6.1718884-18.1154289
				c0.332468-1.2041874,1.5781746-1.9108553,2.7823639-1.5783863l0.0000038,0.000001
				c1.2041874,0.332469,1.9108562,1.5781755,1.5783863,2.7823639l-4.2139244,14.5086575"/>
			<path fill="none" stroke="#080808" stroke-width="2" stroke-linejoin="round" stroke-miterlimit="10" d="M36.6803322,27.7634773
				c0,0,1.150692-0.5699368,2.3810387-0.1247997c1.1408119,0.4127426,1.428524,1.4835548,1.2768593,2.7235565
				c-1.069294,8.7422276-8.4094124,14.552393-8.8859882,16.2785244"/>
		</g>
		
			<line fill="none" stroke="#080808" stroke-width="2" stroke-linecap="round" stroke-linejoin="round" stroke-miterlimit="10" x1="22.3074627" y1="2.8345451" x2="17.0421963" y2="7.1153049"/>
		
			<polyline fill="none" stroke="#080808" stroke-width="2" stroke-linecap="round" stroke-linejoin="round" stroke-miterlimit="10" points="
			19.1254539,2.5063765 22.3074627,2.8345451 21.9792938,6.0165534 		"/>
		
			<line fill="none" stroke="#080808" stroke-width="2" stroke-linecap="round" stroke-linejoin="round" stroke-miterlimit="10" x1="6.5116663" y1="15.6768246" x2="11.7769318" y2="11.3960648"/>
		
			<polyline fill="none" stroke="#080808" stroke-width="2" stroke-linecap="round" stroke-linejoin="round" stroke-miterlimit="10" points="
			9.693675,16.0049934 6.5116663,15.6768246 6.8398352,12.4948158 		"/>
		<path fill="none" stroke="#080808" stroke-width="2" stroke-linecap="square" stroke-miterlimit="10" d="M26.0937214,13.6222649
			c-1.4550705-1.511323-1.8763447-3.8329201-0.8821678-5.8149009c1.2607269-2.5133724,4.3202381-3.5288424,6.8336124-2.268116
			c2.5133705,1.2607269,3.5288429,4.3202395,2.268116,6.833612c-0.6440392,1.283946-1.7574921,2.1769943-3.0277576,2.575388"/>
		<path fill="none" stroke="#080808" stroke-width="2" stroke-miterlimit="10" d="M12.7643585,29.0095463
			c-2.1032066-0.0744247-4.0264187-1.4541225-4.692358-3.5764065c-0.8444848-2.6912937,0.6526489-5.5576077,3.3439426-6.4020939
			c2.6912928-0.8444843,5.5576077,0.6526489,6.402092,3.3439426c0.4993,1.5912189,0.1800327,3.2436199-0.7206402,4.5031509"/>
	</g>
</g>
<g id="_x32_f-tap-down">
</g>
<g id="_x32_f-tap-up">
</g>
<g id="_x32_f-tap-hold">
</g>
<g id="_x32_f-drag">
</g>
<g id="_x32_f-double-tap">
</g>
<g id="_x32_f-tap">
</g>
<g id="_x32_f-drag-twoside">
</g>
<g id="_x32_f-press">
</g>
<g id="sf-tap">
</g>
<g id="_x32_fingers">
</g>
<g id="if-tap-down">
</g>
<g id="if-tap-up">
</g>
<g id="_x31_f-tap-hold">
</g>
<g id="_x31_f-tag-drag">
</g>
<g id="_x31_f-swipe-up">
</g>
<g id="_x31_f-swipe-down">
</g>
<g id="_x31_f-swipe-right">
</g>
<g id="_x31_f-swipe-left">
</g>
<g id="horizontal-drag">
</g>
<g id="drag-left">
</g>
<g id="drag-up-down">
</g>
<g id="drag-down_1_">
</g>
<g id="drag-down">
</g>
<g id="press_hold">
</g>
<g id="double_tap">
</g>
<g id="tap">
</g>
<g id="press">
</g>
<g id="swipe-left-h">
</g>
<g id="show">
</g>
<g id="swipe-right-h">
</g>
<g id="_x34_f-swipe-right">
</g>
</svg>
