<?xml version="1.0" encoding="utf-8"?>
<!-- Generator: Adobe Illustrator 18.0.0, SVG Export Plug-In . SVG Version: 6.00 Build 0)  -->
<!DOCTYPE svg PUBLIC "-//W3C//DTD SVG 1.1//EN" "http://www.w3.org/Graphics/SVG/1.1/DTD/svg11.dtd">
<svg version="1.1" xmlns="http://www.w3.org/2000/svg" xmlns:xlink="http://www.w3.org/1999/xlink" x="0px" y="0px"
	 viewBox="0 0 48 48" enable-background="new 0 0 48 48" xml:space="preserve">
<g id="Layer_1">
</g>
<g id="scaning_identity">
</g>
<g id="finding-identity">
</g>
<g id="finger-security-open">
	<g>
		<g>
			<path fill="none" stroke="#080808" stroke-width="2" stroke-linecap="round" stroke-miterlimit="10" d="M27.6132317,23.1281071
				c-0.0941162-2.0799427-1.6878529-3.7699223-3.7699242-3.7699223s-3.7699223,1.6878529-3.7699223,3.7699223
				c0,6.9022617,2.2148151,11.8281345-7.8611603,19.403017"/>
			<path fill="none" stroke="#080808" stroke-width="2" stroke-linecap="round" stroke-miterlimit="10" d="M21.1101131,45.7484207
				c0.9629383-1.018116,1.8152218-2.1022339,2.5599785-3.2648697"/>
			<path fill="none" stroke="#080808" stroke-width="2" stroke-linecap="round" stroke-miterlimit="10" d="M31.2735386,21.8398933
				c-0.6112175-3.5504398-3.7052746-6.2516317-7.4302311-6.2516317c-4.1641426,0-7.5398464,3.3757048-7.5398464,7.5398455
				c0,5.5292225,1.9792099,11.6396389-7.6283188,16.7797337"/>
			<path fill="none" stroke="#080808" stroke-width="2" stroke-linecap="round" stroke-miterlimit="10" d="M26.3880062,45.7484207
				c0.1245918-0.1647682,0.2461243-0.3331337,0.3646717-0.5048637"/>
			<path fill="none" stroke="#080808" stroke-width="2" stroke-linecap="round" stroke-miterlimit="10" d="M35.0635414,21.6981621
				c-0.7028847-5.5711269-5.4583836-9.8798237-11.2202339-9.8798237c-6.2462139,0-11.8752584,5.0265636-11.3097696,11.3097687
				c0.4731655,5.257391,2.1205673,10.6590023-6.5411377,12.5353756"/>
			<path fill="none" stroke="#080808" stroke-width="2" stroke-linecap="round" stroke-miterlimit="10" d="M21.3689804,38.1270523
				c-1.1303272,1.9850273-2.7599735,4.0701637-5.1042957,6.3190575"/>
			<path fill="none" stroke="#080808" stroke-width="2" stroke-linecap="round" stroke-miterlimit="10" d="M23.8433075,23.1281071
				c0,1.0352592,0.0226746,2.0498028,0.0334511,3.0538464"/>
			<path fill="none" stroke="#080808" stroke-width="2" stroke-linecap="round" stroke-miterlimit="10" d="M38.9184341,22.7532959
				c-0.09795-4.0152645-1.7653999-7.641367-4.4121742-10.2881413c-2.7288857-2.7288876-6.4988098-4.4167395-10.6629524-4.4167395
				s-7.9340649,1.6878519-10.6629534,4.4167395s-4.4167395,6.4988117-4.4167395,10.6629524
				c0,1.5299053,0.2278309,3.0065975,0.6514149,4.3980007c0.291173,0.9564552-0.2281485,1.9702091-1.169445,2.3071785
				l-0.0000029,0.0000019c-1.0275178,0.3678322-2.1383343-0.2140789-2.4531798-1.2590504
				c-0.5194988-1.7242146-0.7987103-3.5525646-0.7987103-5.4461308c0-5.2051773,2.1098151-9.9175816,5.5209246-13.3286905
				s8.1235142-5.520925,13.3286915-5.520925s9.9175835,2.1098151,13.3286934,5.520925s5.5209236,8.1235132,5.5209236,13.3286905
				c0,0.647049-0.0114517,1.3863277-0.0377808,2.1949272"/>
		</g>
	</g>
	<path fill="none" stroke="#080808" stroke-width="2" stroke-linecap="round" stroke-miterlimit="10" d="M39.1849556,42.7317085
		h-8.8177395c-1.1045704,0-2-0.8954315-2-2v-5.8017998c0-1.1045685,0.8954296-2,2-2h8.8177395c1.1045685,0,2,0.8954315,2,2
		v5.8017998C41.1849556,41.836277,40.2895241,42.7317085,39.1849556,42.7317085z"/>
	<path fill="none" stroke="#080808" stroke-width="2" stroke-linecap="square" stroke-miterlimit="10" d="M30.9042873,27.2031765
		c1.6348362-2.157196,4.7088871-2.5806503,6.8660831-0.9458141c1.8375778,1.3926144,2.4171104,3.8295612,1.5379829,5.8545151"/>
</g>
<g id="finger-security">
</g>
<g id="searching">
</g>
<g id="canceled">
</g>
<g id="success">
</g>
<g id="finger-add">
</g>
<g id="finger-minus">
</g>
<g id="finger-press">
</g>
<g id="_x35_f-long-tap">
</g>
<g id="_x35_f-pinch">
</g>
<g id="_x35_f-stretch">
</g>
<g id="_x35_f-swipe-up">
</g>
<g id="_x35_f-swipe-up_1_">
</g>
<g id="_x35_f-swipe-down">
</g>
<g id="_x35_f-swipe-right">
</g>
<g id="_x35_f-swipe-left">
</g>
<g id="_x35_f-drag-left-right">
</g>
<g id="_x35_f-drag-up-down">
</g>
<g id="_x35_f-tap-hold">
</g>
<g id="_x35_f-pinchout">
</g>
<g id="_x35_f-pinchin">
</g>
<g id="_x35_f-tap-down">
</g>
<g id="_x35_f-tap-up">
</g>
<g id="_x35_f-drag">
</g>
<g id="_x35_f-double-tap">
</g>
<g id="_x35_f-press-hold">
</g>
<g id="_x35_f-press">
</g>
<g id="_x35_f-tap">
</g>
<g id="_x35_finger">
</g>
<g id="_x34_f_horizontal_dragin">
</g>
<g id="_x34_f-horizontal-dragout">
</g>
<g id="_x34_f-tap-down">
</g>
<g id="_x34_f-tap-up">
</g>
<g id="_x34_f-drag-left-right">
</g>
<g id="_x34_f-drag-up-down">
</g>
<g id="_x34_f-swipe-up">
</g>
<g id="_x34_f-swipe-down">
</g>
<g id="_x34_f-swipe-left">
</g>
<g id="_x33_f-drag">
</g>
<g id="_x33_f-double-tap_1_">
</g>
<g id="_x33_f-press-hold_1_">
</g>
<g id="_x33_f-press_1_">
</g>
<g id="_x33_fingers_1_">
</g>
<g id="_x32_f-tag-down">
</g>
<g id="_x32_f-drag-left-right_1_">
</g>
<g id="_x32_f-drag-up-down">
</g>
<g id="_x32_f-swipe-up_1_">
</g>
<g id="_x32_f-swipe-down_1_">
</g>
<g id="_x33_f-horizontal-drag">
</g>
<g id="_x33_f-horizotal-dragout">
</g>
<g id="_x32_f-swipe-right_1_">
</g>
<g id="_x32_f-swipe-left_1_">
</g>
<g id="_x33_f-tap-down">
</g>
<g id="_x33_f-tap-up">
</g>
<g id="_x33_f-double-tap">
</g>
<g id="_x33_f-press-hold">
</g>
<g id="_x33_f-press">
</g>
<g id="_x33_fingers">
</g>
<g id="_x32_f-horizotal-drag">
</g>
<g id="_x32_f-tap-down_1_">
</g>
<g id="_x32_f-drag-left-right">
</g>
<g id="_x32_fdrag-up-down">
</g>
<g id="_x32_f-swipe-up">
</g>
<g id="_x32_f-swipe-down">
</g>
<g id="_x32_f-swipe-right">
</g>
<g id="_x32_f-swipe-left">
</g>
<g id="pinch">
</g>
<g id="stretch">
</g>
<g id="_x32_f-tap-down">
</g>
<g id="_x32_f-tap-up">
</g>
<g id="_x32_f-tap-hold">
</g>
<g id="_x32_f-drag">
</g>
<g id="_x32_f-double-tap">
</g>
<g id="_x32_f-tap">
</g>
<g id="_x32_f-drag-twoside">
</g>
<g id="_x32_f-press">
</g>
<g id="sf-tap">
</g>
<g id="_x32_fingers">
</g>
<g id="if-tap-down">
</g>
<g id="if-tap-up">
</g>
<g id="_x31_f-tap-hold">
</g>
<g id="_x31_f-tag-drag">
</g>
<g id="_x31_f-swipe-up">
</g>
<g id="_x31_f-swipe-down">
</g>
<g id="_x31_f-swipe-right">
</g>
<g id="_x31_f-swipe-left">
</g>
<g id="horizontal-drag">
</g>
<g id="drag-left">
</g>
<g id="drag-up-down">
</g>
<g id="drag-down_1_">
</g>
<g id="drag-down">
</g>
<g id="press_hold">
</g>
<g id="double_tap">
</g>
<g id="tap">
</g>
<g id="press">
</g>
<g id="swipe-left-h">
</g>
<g id="show">
</g>
<g id="swipe-right-h">
</g>
<g id="_x34_f-swipe-right">
</g>
</svg>
