<?xml version="1.0" encoding="utf-8"?>
<!-- Generator: Adobe Illustrator 18.0.0, SVG Export Plug-In . SVG Version: 6.00 Build 0)  -->
<!DOCTYPE svg PUBLIC "-//W3C//DTD SVG 1.1//EN" "http://www.w3.org/Graphics/SVG/1.1/DTD/svg11.dtd">
<svg version="1.1" xmlns="http://www.w3.org/2000/svg" xmlns:xlink="http://www.w3.org/1999/xlink" x="0px" y="0px"
	 viewBox="0 0 48 48" enable-background="new 0 0 48 48" xml:space="preserve">
<g id="Layer_1">
</g>
<g id="scaning_identity">
</g>
<g id="finding-identity">
</g>
<g id="finger-security-open">
</g>
<g id="finger-security">
</g>
<g id="searching">
</g>
<g id="canceled">
</g>
<g id="success">
</g>
<g id="finger-add">
</g>
<g id="finger-minus">
</g>
<g id="finger-press">
</g>
<g id="_x35_f-long-tap">
</g>
<g id="_x35_f-pinch">
</g>
<g id="_x35_f-stretch">
</g>
<g id="_x35_f-swipe-up">
</g>
<g id="_x35_f-swipe-up_1_">
</g>
<g id="_x35_f-swipe-down">
</g>
<g id="_x35_f-swipe-right">
</g>
<g id="_x35_f-swipe-left">
</g>
<g id="_x35_f-drag-left-right">
</g>
<g id="_x35_f-drag-up-down">
</g>
<g id="_x35_f-tap-hold">
</g>
<g id="_x35_f-pinchout">
</g>
<g id="_x35_f-pinchin">
</g>
<g id="_x35_f-tap-down">
</g>
<g id="_x35_f-tap-up">
</g>
<g id="_x35_f-drag">
</g>
<g id="_x35_f-double-tap">
</g>
<g id="_x35_f-press-hold">
</g>
<g id="_x35_f-press">
</g>
<g id="_x35_f-tap">
</g>
<g id="_x35_finger">
</g>
<g id="_x34_f_horizontal_dragin">
</g>
<g id="_x34_f-horizontal-dragout">
</g>
<g id="_x34_f-tap-down">
</g>
<g id="_x34_f-tap-up">
</g>
<g id="_x34_f-drag-left-right">
</g>
<g id="_x34_f-drag-up-down">
</g>
<g id="_x34_f-swipe-up">
</g>
<g id="_x34_f-swipe-down">
</g>
<g id="_x34_f-swipe-left">
</g>
<g id="_x33_f-drag">
</g>
<g id="_x33_f-double-tap_1_">
	<g>
		<path fill="none" stroke="#080808" stroke-width="2" stroke-miterlimit="10" d="M25.3788376,29.1288414V14.0491486
			c0-1.2492409,1.0127106-2.2619514,2.2619514-2.2619514h0.0000038c1.2492428,0,2.2619534,1.0127106,2.2619534,2.2619514v15.8336773
			"/>
		<path fill="none" stroke="#080808" stroke-width="2" stroke-miterlimit="10" d="M16.3310223,34.4067345l-0.7539854-18.8496189
			c0-1.2492409,1.0127096-2.2619514,2.2619524-2.2619514h0.0000038c1.2492409,0,2.2619514,1.0127106,2.2619514,2.2619514
			l0.7539845,13.5717258l-0.7539845-17.3416481c0-1.2492409,1.0127106-2.2619514,2.2619514-2.2619514h0.0000057
			c1.2492409,0,2.2619514,1.0127106,2.2619514,2.2619514l0.7539845,17.3416481"/>
		<path fill="none" stroke="#080808" stroke-width="2" stroke-miterlimit="10" d="M16.3310223,46.4704895
			c0-2.3562012-6.283206-6.5345345-5.9376297-11.8124275c0.3141603-2.2305374,1.211956-5.4105263,2.0420418-6.3460369
			c0.919898-1.0367279,2.3878021-1.6650486,3.2879639-1.804388"/>
		<path fill="none" stroke="#080808" stroke-width="2" stroke-linejoin="round" stroke-miterlimit="10" d="M32.1646996,46.4704895
			c0-1.7907143,3.8641701-9.4719315,1.9556465-18.8260555c-0.2497368-1.2240238,0.2785606-9.5304089-1.8440361-10.2651863
			c-1.9965725-0.6911526-2.1850681,1.947794-2.1850681,1.947794l-0.1884956,9.1734791"/>
	</g>
	<path fill="none" stroke="#080808" stroke-width="2" stroke-linecap="round" stroke-linejoin="round" stroke-miterlimit="10" d="
		M36.5301056,21.9025993c0.576992-0.881422,0.912487-1.9351959,0.912487-3.0673199
		c0-2.5503559-1.7040176-4.6993761-4.0344887-5.3799076c-0.287117-2.8278389-2.6752872-5.0345068-5.5788174-5.0345068
		c-0.3235912,0-0.638773,0.0334454-0.9474049,0.0860567c-1.0063229-1.500905-2.7175789-2.4893823-4.6603737-2.4893823
		c-2.2408752,0-4.1691799,1.3176436-5.0671501,3.2175879c-2.9752121,0.1370544-5.3472443,2.5854626-5.3472443,5.5946074
		c0,1.5063381,0.5939369,2.8739662,1.5604,3.8814716"/>
	<path fill="none" stroke="#080808" stroke-width="2" stroke-linecap="round" stroke-linejoin="round" stroke-miterlimit="10" d="
		M37.7784195,24.246767c1.654995-1.6396446,2.6801109-3.9139614,2.6801109-6.4276943
		c0-3.4692316-1.9545898-6.4788656-4.8206863-7.9970512c-1.4098129-2.6614962-4.1072025-4.5296607-7.2634087-4.7836428
		c-1.5990887-1.4254563-3.7008018-2.2989998-6.0115376-2.2989998c-3.2808723,0-6.1451759,1.7521491-7.7315636,4.3659229
		c-3.4112921,1.2957726-5.8401594,4.5860348-5.8401594,8.4518166c0,2.8553858,1.3227091,5.4018507,3.3888369,7.0600843"/>
</g>
<g id="_x33_f-press-hold_1_">
</g>
<g id="_x33_f-press_1_">
</g>
<g id="_x33_fingers_1_">
</g>
<g id="_x32_f-tag-down">
</g>
<g id="_x32_f-drag-left-right_1_">
</g>
<g id="_x32_f-drag-up-down">
</g>
<g id="_x32_f-swipe-up_1_">
</g>
<g id="_x32_f-swipe-down_1_">
</g>
<g id="_x33_f-horizontal-drag">
</g>
<g id="_x33_f-horizotal-dragout">
</g>
<g id="_x32_f-swipe-right_1_">
</g>
<g id="_x32_f-swipe-left_1_">
</g>
<g id="_x33_f-tap-down">
</g>
<g id="_x33_f-tap-up">
</g>
<g id="_x33_f-double-tap">
</g>
<g id="_x33_f-press-hold">
</g>
<g id="_x33_f-press">
</g>
<g id="_x33_fingers">
</g>
<g id="_x32_f-horizotal-drag">
</g>
<g id="_x32_f-tap-down_1_">
</g>
<g id="_x32_f-drag-left-right">
</g>
<g id="_x32_fdrag-up-down">
</g>
<g id="_x32_f-swipe-up">
</g>
<g id="_x32_f-swipe-down">
</g>
<g id="_x32_f-swipe-right">
</g>
<g id="_x32_f-swipe-left">
</g>
<g id="pinch">
</g>
<g id="stretch">
</g>
<g id="_x32_f-tap-down">
</g>
<g id="_x32_f-tap-up">
</g>
<g id="_x32_f-tap-hold">
</g>
<g id="_x32_f-drag">
</g>
<g id="_x32_f-double-tap">
</g>
<g id="_x32_f-tap">
</g>
<g id="_x32_f-drag-twoside">
</g>
<g id="_x32_f-press">
</g>
<g id="sf-tap">
</g>
<g id="_x32_fingers">
</g>
<g id="if-tap-down">
</g>
<g id="if-tap-up">
</g>
<g id="_x31_f-tap-hold">
</g>
<g id="_x31_f-tag-drag">
</g>
<g id="_x31_f-swipe-up">
</g>
<g id="_x31_f-swipe-down">
</g>
<g id="_x31_f-swipe-right">
</g>
<g id="_x31_f-swipe-left">
</g>
<g id="horizontal-drag">
</g>
<g id="drag-left">
</g>
<g id="drag-up-down">
</g>
<g id="drag-down_1_">
</g>
<g id="drag-down">
</g>
<g id="press_hold">
</g>
<g id="double_tap">
</g>
<g id="tap">
</g>
<g id="press">
</g>
<g id="swipe-left-h">
</g>
<g id="show">
</g>
<g id="swipe-right-h">
</g>
<g id="_x34_f-swipe-right">
</g>
</svg>
