<?xml version="1.0" encoding="utf-8"?>
<!-- Generator: Adobe Illustrator 18.0.0, SVG Export Plug-In . SVG Version: 6.00 Build 0)  -->
<!DOCTYPE svg PUBLIC "-//W3C//DTD SVG 1.1//EN" "http://www.w3.org/Graphics/SVG/1.1/DTD/svg11.dtd">
<svg version="1.1" xmlns="http://www.w3.org/2000/svg" xmlns:xlink="http://www.w3.org/1999/xlink" x="0px" y="0px"
	 viewBox="0 0 48 48" enable-background="new 0 0 48 48" xml:space="preserve">
<g id="Layer_1">
</g>
<g id="scaning_identity">
</g>
<g id="finding-identity">
</g>
<g id="finger-security-open">
</g>
<g id="finger-security">
</g>
<g id="searching">
</g>
<g id="canceled">
</g>
<g id="success">
</g>
<g id="finger-add">
</g>
<g id="finger-minus">
</g>
<g id="finger-press">
</g>
<g id="_x35_f-long-tap">
</g>
<g id="_x35_f-pinch">
</g>
<g id="_x35_f-stretch">
</g>
<g id="_x35_f-swipe-up">
</g>
<g id="_x35_f-swipe-up_1_">
</g>
<g id="_x35_f-swipe-down">
</g>
<g id="_x35_f-swipe-right">
</g>
<g id="_x35_f-swipe-left">
</g>
<g id="_x35_f-drag-left-right">
</g>
<g id="_x35_f-drag-up-down">
</g>
<g id="_x35_f-tap-hold">
</g>
<g id="_x35_f-pinchout">
	<g>
		<path fill="none" stroke="#000000" stroke-width="2" stroke-linecap="round" stroke-miterlimit="10" d="M27.1275082,26.7594528
			l3.2113266-13.9130898c0.2570896-1.113842,1.3621998-1.8137569,2.4790554-1.570096l0.0000038,0.000001
			c1.0493813,0.22894,1.7537842,1.2167816,1.6282997,2.2834902l-1.8014221,14.6448317"/>
		<path fill="none" stroke="#000000" stroke-width="2" stroke-linecap="round" stroke-miterlimit="10" d="M21.7155075,26.9184818
			l0.1185169-17.464922c0.0086288-1.2715034,1.0418205-2.297709,2.3133545-2.297709h0.0000038
			c1.2430668,0,2.2639236,0.9823489,2.3116989,2.2244964l0.6684265,17.3791046"/>
		<path fill="none" stroke="#000000" stroke-width="2" stroke-miterlimit="10" d="M21.7155075,26.9184818l-3.2163582-13.6832972
			c-0.2835236-1.2061882-1.4924355-1.9530544-2.6979818-1.6668139l-0.0000038,0.000001
			c-1.1446524,0.271781-1.8873978,1.3817196-1.6926937,2.5419712c0.8130379,4.8449106,1.6306381,11.2599154,2.842864,17.3326607
			c0,0-1.6048355,0.1545181-2.8928919-1.730444c-0.9409523-1.3770027-1.2566414-3.2672672-3.6340942-4.0245228
			c-1.0366859-0.3302002-2.319643,0.0976639-3.109549,0.4488392c-0.4033995,0.1793442-0.5653143,0.661993-0.3496022,1.0471745
			c0.6404686,1.1436329,1.751668,3.5750008,2.5698881,5.1756496c1.3800812,2.6997948,3.5119238,5.4559174,4.9631815,6.9818726
			c0.5925035,0.6230011,4.2097473,4.7595291,4.2097473,7.2728081"/>
		<path fill="none" stroke="#000000" stroke-width="2" stroke-miterlimit="10" d="M32.6447716,28.2045898l3.426899-8.7405071
			c0.3906364-0.9963417,1.4654045-1.5423431,2.5004272-1.2702579h0.0000038
			c1.172802,0.3083057,1.8352432,1.5389442,1.4664879,2.6941681c-2.0889091,6.5441113-2.6532707,12.4136124-3.0150299,15.57901
			c-0.0451279,0.3948441-0.0959892,0.7731438-0.1517448,1.13591c0,0-0.858593,5.9955292-2.4111748,9.011467"/>
	</g>
	
		<line fill="none" stroke="#080808" stroke-width="2" stroke-linejoin="round" stroke-miterlimit="10" x1="46.4368591" y1="2.9261963" x2="40.5306435" y2="8.4952316"/>
	
		<polyline fill="none" stroke="#080808" stroke-width="2" stroke-linecap="round" stroke-linejoin="round" stroke-miterlimit="10" points="
		42.9611855,2.631943 46.7311096,2.631943 46.7311096,6.401866 	"/>
	
		<line fill="none" stroke="#080808" stroke-width="2" stroke-linejoin="round" stroke-miterlimit="10" x1="3.2942533" y1="2.9261942" x2="8.8632889" y2="8.832408"/>
	
		<polyline fill="none" stroke="#080808" stroke-width="2" stroke-linecap="round" stroke-linejoin="round" stroke-miterlimit="10" points="
		3,6.401866 3,2.631943 6.7699232,2.631943 	"/>
	
		<line fill="none" stroke="#080808" stroke-width="2" stroke-linejoin="round" stroke-miterlimit="10" x1="30.6731491" y1="1.1708548" x2="29.6137466" y2="7.1089697"/>
	
		<polyline fill="none" stroke="#080808" stroke-width="2" stroke-linecap="round" stroke-linejoin="round" stroke-miterlimit="10" points="
		28.0490799,3.0003717 30.6731491,1.1708548 32.5026665,3.7949243 	"/>
	
		<line fill="none" stroke="#080808" stroke-width="2" stroke-linejoin="round" stroke-miterlimit="10" x1="17.4359703" y1="1.1934726" x2="18.7234173" y2="7.0863519"/>
	
		<polyline fill="none" stroke="#080808" stroke-width="2" stroke-linecap="round" stroke-linejoin="round" stroke-miterlimit="10" points="
		15.7089329,3.8860948 17.4359703,1.1934726 20.1285915,2.9205096 	"/>
</g>
<g id="_x35_f-pinchin">
</g>
<g id="_x35_f-tap-down">
</g>
<g id="_x35_f-tap-up">
</g>
<g id="_x35_f-drag">
</g>
<g id="_x35_f-double-tap">
</g>
<g id="_x35_f-press-hold">
</g>
<g id="_x35_f-press">
</g>
<g id="_x35_f-tap">
</g>
<g id="_x35_finger">
</g>
<g id="_x34_f_horizontal_dragin">
</g>
<g id="_x34_f-horizontal-dragout">
</g>
<g id="_x34_f-tap-down">
</g>
<g id="_x34_f-tap-up">
</g>
<g id="_x34_f-drag-left-right">
</g>
<g id="_x34_f-drag-up-down">
</g>
<g id="_x34_f-swipe-up">
</g>
<g id="_x34_f-swipe-down">
</g>
<g id="_x34_f-swipe-left">
</g>
<g id="_x33_f-drag">
</g>
<g id="_x33_f-double-tap_1_">
</g>
<g id="_x33_f-press-hold_1_">
</g>
<g id="_x33_f-press_1_">
</g>
<g id="_x33_fingers_1_">
</g>
<g id="_x32_f-tag-down">
</g>
<g id="_x32_f-drag-left-right_1_">
</g>
<g id="_x32_f-drag-up-down">
</g>
<g id="_x32_f-swipe-up_1_">
</g>
<g id="_x32_f-swipe-down_1_">
</g>
<g id="_x33_f-horizontal-drag">
</g>
<g id="_x33_f-horizotal-dragout">
</g>
<g id="_x32_f-swipe-right_1_">
</g>
<g id="_x32_f-swipe-left_1_">
</g>
<g id="_x33_f-tap-down">
</g>
<g id="_x33_f-tap-up">
</g>
<g id="_x33_f-double-tap">
</g>
<g id="_x33_f-press-hold">
</g>
<g id="_x33_f-press">
</g>
<g id="_x33_fingers">
</g>
<g id="_x32_f-horizotal-drag">
</g>
<g id="_x32_f-tap-down_1_">
</g>
<g id="_x32_f-drag-left-right">
</g>
<g id="_x32_fdrag-up-down">
</g>
<g id="_x32_f-swipe-up">
</g>
<g id="_x32_f-swipe-down">
</g>
<g id="_x32_f-swipe-right">
</g>
<g id="_x32_f-swipe-left">
</g>
<g id="pinch">
</g>
<g id="stretch">
</g>
<g id="_x32_f-tap-down">
</g>
<g id="_x32_f-tap-up">
</g>
<g id="_x32_f-tap-hold">
</g>
<g id="_x32_f-drag">
</g>
<g id="_x32_f-double-tap">
</g>
<g id="_x32_f-tap">
</g>
<g id="_x32_f-drag-twoside">
</g>
<g id="_x32_f-press">
</g>
<g id="sf-tap">
</g>
<g id="_x32_fingers">
</g>
<g id="if-tap-down">
</g>
<g id="if-tap-up">
</g>
<g id="_x31_f-tap-hold">
</g>
<g id="_x31_f-tag-drag">
</g>
<g id="_x31_f-swipe-up">
</g>
<g id="_x31_f-swipe-down">
</g>
<g id="_x31_f-swipe-right">
</g>
<g id="_x31_f-swipe-left">
</g>
<g id="horizontal-drag">
</g>
<g id="drag-left">
</g>
<g id="drag-up-down">
</g>
<g id="drag-down_1_">
</g>
<g id="drag-down">
</g>
<g id="press_hold">
</g>
<g id="double_tap">
</g>
<g id="tap">
</g>
<g id="press">
</g>
<g id="swipe-left-h">
</g>
<g id="show">
</g>
<g id="swipe-right-h">
</g>
<g id="_x34_f-swipe-right">
</g>
</svg>
