<?xml version="1.0" encoding="utf-8"?>
<!-- Generator: Adobe Illustrator 18.0.0, SVG Export Plug-In . SVG Version: 6.00 Build 0)  -->
<!DOCTYPE svg PUBLIC "-//W3C//DTD SVG 1.1//EN" "http://www.w3.org/Graphics/SVG/1.1/DTD/svg11.dtd">
<svg version="1.1" xmlns="http://www.w3.org/2000/svg" xmlns:xlink="http://www.w3.org/1999/xlink" x="0px" y="0px"
	 viewBox="0 0 48 48" enable-background="new 0 0 48 48" xml:space="preserve">
<g id="Layer_1">
</g>
<g id="scaning_identity">
</g>
<g id="finding-identity">
</g>
<g id="finger-security-open">
</g>
<g id="finger-security">
</g>
<g id="searching">
</g>
<g id="canceled">
</g>
<g id="success">
</g>
<g id="finger-add">
</g>
<g id="finger-minus">
</g>
<g id="finger-press">
</g>
<g id="_x35_f-long-tap">
</g>
<g id="_x35_f-pinch">
</g>
<g id="_x35_f-stretch">
</g>
<g id="_x35_f-swipe-up">
</g>
<g id="_x35_f-swipe-up_1_">
</g>
<g id="_x35_f-swipe-down">
</g>
<g id="_x35_f-swipe-right">
</g>
<g id="_x35_f-swipe-left">
</g>
<g id="_x35_f-drag-left-right">
</g>
<g id="_x35_f-drag-up-down">
</g>
<g id="_x35_f-tap-hold">
</g>
<g id="_x35_f-pinchout">
</g>
<g id="_x35_f-pinchin">
	<g>
		<path fill="none" stroke="#000000" stroke-width="2" stroke-miterlimit="10" d="M22.7208214,26.1644974l-1.9819393-8.5946712
			c-0.1776218-0.770256-0.5636406-1.4768333-1.1158371-2.0424509l-1.4185104-1.4529924
			c-1.0147038-1.0393677-2.6494064-1.1475172-3.7921925-0.250886l-0.1618948,0.1270218
			c-0.7115917,0.5583162-0.9755697,1.5156078-0.6507053,2.3597307l0.020998,0.0545616
			c0.2350025,0.6106281,0.7473059,1.0692654,1.3771887,1.2462902c0.0081272,0.002285,0.016283,0.0045834,0.0244665,0.0068951
			c0.4640942,0.1311035,0.8098402,0.5308571,0.8785877,1.0081882c0.6530409,4.5342331,0.733573,4.3005123,1.3016787,10.554863
			c0,0-2.6143694,0.6394958-3.9338427-1.6538734s-2.948884-4.6318932-5.2108383-5.2916298s-4.2411642,1.4137211-4.2411642,1.4137211
			s3.8530037,7.0077038,4.9951487,9.2363129c3.7699232,7.3560562,10.9013624,11.2155228,10.9013624,13.7288017"/>
		<path fill="none" stroke="#000000" stroke-width="2" stroke-linecap="square" stroke-linejoin="round" stroke-miterlimit="10" d="
			M35.4841728,45.8603973c3.7881432-6.7544479,2.2619553-14.7655334,5.0766373-23.3799057
			c0.3419342-1.0464878,0.249382-2.1896763-0.1518478-3.2148914l-0.2438622-0.6231117
			c-0.3698845-0.9451237-1.3321228-1.5204926-2.3397598-1.3990555l-0.0528259,0.0063667
			c-1.2286491,0.1480751-2.0538139,1.3338661-1.7657204,2.537405l0.2313614,0.9665546l-2.5880699,5.1888752l1.0474358-9.3669376
			c0,0,0.5039063-4.0477057-2.5120316-4.4246979c-0.0225143-0.0028143-0.0448647-0.0054693-0.0670433-0.007967
			c-1.5048695-0.1694508-2.7279358,1.2083998-2.4636078,2.6995316l0.174448,0.9841108l-1.5079689,10.3378229L27.4643955,12.396286
			c-0.0477753-1.2421474-1.068634-2.2244968-2.3116989-2.2244968h-0.0000057c-1.2715321,0-2.3047256,1.0262051-2.3133545,2.2977095
			l-0.118515,13.6949987"/>
	</g>
	
		<line fill="none" stroke="#080808" stroke-width="2" stroke-linejoin="round" stroke-miterlimit="10" x1="29.6407909" y1="5.6478815" x2="32.6567307" y2="1.1239736"/>
	
		<polyline fill="none" stroke="#080808" stroke-width="2" stroke-linecap="round" stroke-linejoin="round" stroke-miterlimit="10" points="
		32.8672485,5.0387216 29.6407909,5.6478815 28.8868065,2.631943 	"/>
	
		<line fill="none" stroke="#080808" stroke-width="2" stroke-linejoin="round" stroke-miterlimit="10" x1="40.9505615" y1="8.6638203" x2="46.8567734" y2="3.0947847"/>
	
		<polyline fill="none" stroke="#080808" stroke-width="2" stroke-linecap="round" stroke-linejoin="round" stroke-miterlimit="10" points="
		44.7204857,8.6638203 40.9505615,8.6638203 40.9505615,4.8938971 	"/>
	
		<line fill="none" stroke="#080808" stroke-width="2" stroke-linejoin="round" stroke-miterlimit="10" x1="8.5292206" y1="8.6638203" x2="3" y2="2.5062788"/>
	
		<polyline fill="none" stroke="#080808" stroke-width="2" stroke-linecap="round" stroke-linejoin="round" stroke-miterlimit="10" points="
		8.5292206,4.8938971 8.5292206,8.6638203 4.7592974,8.6638203 	"/>
	
		<line fill="none" stroke="#080808" stroke-width="2" stroke-linejoin="round" stroke-miterlimit="10" x1="20.2938519" y1="6.1490021" x2="17.6712856" y2="1.1239736"/>
	
		<polyline fill="none" stroke="#080808" stroke-width="2" stroke-linecap="round" stroke-linejoin="round" stroke-miterlimit="10" points="
		21.3469601,3.3859274 20.2938519,6.1490021 17.3149109,4.9833298 	"/>
</g>
<g id="_x35_f-tap-down">
</g>
<g id="_x35_f-tap-up">
</g>
<g id="_x35_f-drag">
</g>
<g id="_x35_f-double-tap">
</g>
<g id="_x35_f-press-hold">
</g>
<g id="_x35_f-press">
</g>
<g id="_x35_f-tap">
</g>
<g id="_x35_finger">
</g>
<g id="_x34_f_horizontal_dragin">
</g>
<g id="_x34_f-horizontal-dragout">
</g>
<g id="_x34_f-tap-down">
</g>
<g id="_x34_f-tap-up">
</g>
<g id="_x34_f-drag-left-right">
</g>
<g id="_x34_f-drag-up-down">
</g>
<g id="_x34_f-swipe-up">
</g>
<g id="_x34_f-swipe-down">
</g>
<g id="_x34_f-swipe-left">
</g>
<g id="_x33_f-drag">
</g>
<g id="_x33_f-double-tap_1_">
</g>
<g id="_x33_f-press-hold_1_">
</g>
<g id="_x33_f-press_1_">
</g>
<g id="_x33_fingers_1_">
</g>
<g id="_x32_f-tag-down">
</g>
<g id="_x32_f-drag-left-right_1_">
</g>
<g id="_x32_f-drag-up-down">
</g>
<g id="_x32_f-swipe-up_1_">
</g>
<g id="_x32_f-swipe-down_1_">
</g>
<g id="_x33_f-horizontal-drag">
</g>
<g id="_x33_f-horizotal-dragout">
</g>
<g id="_x32_f-swipe-right_1_">
</g>
<g id="_x32_f-swipe-left_1_">
</g>
<g id="_x33_f-tap-down">
</g>
<g id="_x33_f-tap-up">
</g>
<g id="_x33_f-double-tap">
</g>
<g id="_x33_f-press-hold">
</g>
<g id="_x33_f-press">
</g>
<g id="_x33_fingers">
</g>
<g id="_x32_f-horizotal-drag">
</g>
<g id="_x32_f-tap-down_1_">
</g>
<g id="_x32_f-drag-left-right">
</g>
<g id="_x32_fdrag-up-down">
</g>
<g id="_x32_f-swipe-up">
</g>
<g id="_x32_f-swipe-down">
</g>
<g id="_x32_f-swipe-right">
</g>
<g id="_x32_f-swipe-left">
</g>
<g id="pinch">
</g>
<g id="stretch">
</g>
<g id="_x32_f-tap-down">
</g>
<g id="_x32_f-tap-up">
</g>
<g id="_x32_f-tap-hold">
</g>
<g id="_x32_f-drag">
</g>
<g id="_x32_f-double-tap">
</g>
<g id="_x32_f-tap">
</g>
<g id="_x32_f-drag-twoside">
</g>
<g id="_x32_f-press">
</g>
<g id="sf-tap">
</g>
<g id="_x32_fingers">
</g>
<g id="if-tap-down">
</g>
<g id="if-tap-up">
</g>
<g id="_x31_f-tap-hold">
</g>
<g id="_x31_f-tag-drag">
</g>
<g id="_x31_f-swipe-up">
</g>
<g id="_x31_f-swipe-down">
</g>
<g id="_x31_f-swipe-right">
</g>
<g id="_x31_f-swipe-left">
</g>
<g id="horizontal-drag">
</g>
<g id="drag-left">
</g>
<g id="drag-up-down">
</g>
<g id="drag-down_1_">
</g>
<g id="drag-down">
</g>
<g id="press_hold">
</g>
<g id="double_tap">
</g>
<g id="tap">
</g>
<g id="press">
</g>
<g id="swipe-left-h">
</g>
<g id="show">
</g>
<g id="swipe-right-h">
</g>
<g id="_x34_f-swipe-right">
</g>
</svg>
