<?xml version="1.0" encoding="utf-8"?>
<!-- Generator: Adobe Illustrator 18.0.0, SVG Export Plug-In . SVG Version: 6.00 Build 0)  -->
<!DOCTYPE svg PUBLIC "-//W3C//DTD SVG 1.1//EN" "http://www.w3.org/Graphics/SVG/1.1/DTD/svg11.dtd">
<svg version="1.1" xmlns="http://www.w3.org/2000/svg" xmlns:xlink="http://www.w3.org/1999/xlink" x="0px" y="0px"
	 viewBox="0 0 48 48" enable-background="new 0 0 48 48" xml:space="preserve">
<g id="Layer_1">
</g>
<g id="scaning_identity">
</g>
<g id="finding-identity">
</g>
<g id="finger-security-open">
</g>
<g id="finger-security">
</g>
<g id="searching">
</g>
<g id="canceled">
</g>
<g id="success">
</g>
<g id="finger-add">
</g>
<g id="finger-minus">
</g>
<g id="finger-press">
</g>
<g id="_x35_f-long-tap">
</g>
<g id="_x35_f-pinch">
</g>
<g id="_x35_f-stretch">
</g>
<g id="_x35_f-swipe-up">
</g>
<g id="_x35_f-swipe-up_1_">
</g>
<g id="_x35_f-swipe-down">
</g>
<g id="_x35_f-swipe-right">
</g>
<g id="_x35_f-swipe-left">
</g>
<g id="_x35_f-drag-left-right">
</g>
<g id="_x35_f-drag-up-down">
</g>
<g id="_x35_f-tap-hold">
</g>
<g id="_x35_f-pinchout">
</g>
<g id="_x35_f-pinchin">
</g>
<g id="_x35_f-tap-down">
</g>
<g id="_x35_f-tap-up">
</g>
<g id="_x35_f-drag">
</g>
<g id="_x35_f-double-tap">
</g>
<g id="_x35_f-press-hold">
</g>
<g id="_x35_f-press">
</g>
<g id="_x35_f-tap">
</g>
<g id="_x35_finger">
</g>
<g id="_x34_f_horizontal_dragin">
</g>
<g id="_x34_f-horizontal-dragout">
</g>
<g id="_x34_f-tap-down">
</g>
<g id="_x34_f-tap-up">
</g>
<g id="_x34_f-drag-left-right">
</g>
<g id="_x34_f-drag-up-down">
</g>
<g id="_x34_f-swipe-up">
</g>
<g id="_x34_f-swipe-down">
</g>
<g id="_x34_f-swipe-left">
</g>
<g id="_x33_f-drag">
</g>
<g id="_x33_f-double-tap_1_">
</g>
<g id="_x33_f-press-hold_1_">
	<g>
		<path fill="none" stroke="#080808" stroke-width="2" stroke-miterlimit="10" d="M26.1052608,28.8828259l0.7539864-16.5876617
			c0-1.2492409,1.0127087-2.2619514,2.2619514-2.2619514h0.0000038c1.2492409,0,2.2619514,1.0127106,2.2619514,2.2619514
			l-0.7539845,17.3416481"/>
		<path fill="none" stroke="#080808" stroke-width="2" stroke-miterlimit="10" d="M17.0574455,34.1607208l-1.5079689-19.6036053
			c0-1.2492409,1.0127106-2.2619514,2.2619514-2.2619514h0.0000038c1.2492428,0,2.2619534,1.0127106,2.2619534,2.2619514
			l1.5079689,14.3257103l-0.7539845-18.849617c0-1.2492409,1.0127106-2.2619514,2.2619514-2.2619514h0.0000038
			c1.2492428,0,2.2619514,1.0127106,2.2619514,2.2619514l0.7539845,18.849617"/>
		<path fill="none" stroke="#080808" stroke-width="2" stroke-miterlimit="10" d="M17.0574455,46.2244759
			c0-2.356205-6.283205-6.5345345-5.9376287-11.8124275c0.3141603-2.2305374,1.211956-5.4105282,2.0420418-6.3460388
			c0.919898-1.0367279,2.3878021-1.6650486,3.2879648-1.804388"/>
		<path fill="none" stroke="#080808" stroke-width="2" stroke-linejoin="round" stroke-miterlimit="10" d="M32.8911247,46.2244759
			c0-1.7907143,3.8641701-9.4719353,1.9556465-18.8260555c-0.2497368-1.2240257,1.7865257-11.0383797-0.3360672-11.7731571
			c-1.9965744-0.6911526-2.4682884,1.6335716-2.4682884,1.6335716l-1.3092766,9.9866829"/>
	</g>
	<path fill="none" stroke="#080808" stroke-width="2" stroke-linejoin="round" stroke-miterlimit="10" d="M35.2827721,22.4127235
		c2.3002625-0.930851,3.9229736-3.1858578,3.9229736-5.8198643c0-2.9338884-2.0162086-5.3904057-4.7364998-6.0777321
		c-0.2900124-3.1263199-2.872551-5.5815439-6.050869-5.6795559c-1.1499977-1.4389572-2.9168892-2.3632934-4.9021664-2.3632934
		c-2.6743736,0-4.9518166,1.6757753-5.8555164,4.0321741c-2.9167461,0.5402374-5.1271563,3.0928507-5.1271563,6.1660233
		c0,2.4979811,1.4594364,4.6550961,3.5721521,5.6651878"/>
	<g>
		
			<circle fill="none" stroke="#080808" stroke-width="2" stroke-linecap="round" stroke-miterlimit="10" cx="7.2556152" cy="12.295166" r="5.2778926"/>
		<polyline fill="none" stroke="#080808" stroke-width="2" stroke-linecap="round" stroke-miterlimit="10" points="
			7.2556453,10.0332098 7.2556453,12.2951641 8.7636147,14.5571184 		"/>
	</g>
</g>
<g id="_x33_f-press_1_">
</g>
<g id="_x33_fingers_1_">
</g>
<g id="_x32_f-tag-down">
</g>
<g id="_x32_f-drag-left-right_1_">
</g>
<g id="_x32_f-drag-up-down">
</g>
<g id="_x32_f-swipe-up_1_">
</g>
<g id="_x32_f-swipe-down_1_">
</g>
<g id="_x33_f-horizontal-drag">
</g>
<g id="_x33_f-horizotal-dragout">
</g>
<g id="_x32_f-swipe-right_1_">
</g>
<g id="_x32_f-swipe-left_1_">
</g>
<g id="_x33_f-tap-down">
</g>
<g id="_x33_f-tap-up">
</g>
<g id="_x33_f-double-tap">
</g>
<g id="_x33_f-press-hold">
</g>
<g id="_x33_f-press">
</g>
<g id="_x33_fingers">
</g>
<g id="_x32_f-horizotal-drag">
</g>
<g id="_x32_f-tap-down_1_">
</g>
<g id="_x32_f-drag-left-right">
</g>
<g id="_x32_fdrag-up-down">
</g>
<g id="_x32_f-swipe-up">
</g>
<g id="_x32_f-swipe-down">
</g>
<g id="_x32_f-swipe-right">
</g>
<g id="_x32_f-swipe-left">
</g>
<g id="pinch">
</g>
<g id="stretch">
</g>
<g id="_x32_f-tap-down">
</g>
<g id="_x32_f-tap-up">
</g>
<g id="_x32_f-tap-hold">
</g>
<g id="_x32_f-drag">
</g>
<g id="_x32_f-double-tap">
</g>
<g id="_x32_f-tap">
</g>
<g id="_x32_f-drag-twoside">
</g>
<g id="_x32_f-press">
</g>
<g id="sf-tap">
</g>
<g id="_x32_fingers">
</g>
<g id="if-tap-down">
</g>
<g id="if-tap-up">
</g>
<g id="_x31_f-tap-hold">
</g>
<g id="_x31_f-tag-drag">
</g>
<g id="_x31_f-swipe-up">
</g>
<g id="_x31_f-swipe-down">
</g>
<g id="_x31_f-swipe-right">
</g>
<g id="_x31_f-swipe-left">
</g>
<g id="horizontal-drag">
</g>
<g id="drag-left">
</g>
<g id="drag-up-down">
</g>
<g id="drag-down_1_">
</g>
<g id="drag-down">
</g>
<g id="press_hold">
</g>
<g id="double_tap">
</g>
<g id="tap">
</g>
<g id="press">
</g>
<g id="swipe-left-h">
</g>
<g id="show">
</g>
<g id="swipe-right-h">
</g>
<g id="_x34_f-swipe-right">
</g>
</svg>
