<?xml version="1.0" encoding="utf-8"?>
<!-- Generator: Adobe Illustrator 18.0.0, SVG Export Plug-In . SVG Version: 6.00 Build 0)  -->
<!DOCTYPE svg PUBLIC "-//W3C//DTD SVG 1.1//EN" "http://www.w3.org/Graphics/SVG/1.1/DTD/svg11.dtd">
<svg version="1.1" xmlns="http://www.w3.org/2000/svg" xmlns:xlink="http://www.w3.org/1999/xlink" x="0px" y="0px"
	 viewBox="0 0 48 48" enable-background="new 0 0 48 48" xml:space="preserve">
<g id="Layer_1">
</g>
<g id="scaning_identity">
</g>
<g id="finding-identity">
</g>
<g id="finger-security-open">
</g>
<g id="finger-security">
</g>
<g id="searching">
</g>
<g id="canceled">
</g>
<g id="success">
</g>
<g id="finger-add">
</g>
<g id="finger-minus">
</g>
<g id="finger-press">
</g>
<g id="_x35_f-long-tap">
</g>
<g id="_x35_f-pinch">
</g>
<g id="_x35_f-stretch">
</g>
<g id="_x35_f-swipe-up">
</g>
<g id="_x35_f-swipe-up_1_">
</g>
<g id="_x35_f-swipe-down">
</g>
<g id="_x35_f-swipe-right">
</g>
<g id="_x35_f-swipe-left">
</g>
<g id="_x35_f-drag-left-right">
</g>
<g id="_x35_f-drag-up-down">
</g>
<g id="_x35_f-tap-hold">
</g>
<g id="_x35_f-pinchout">
</g>
<g id="_x35_f-pinchin">
</g>
<g id="_x35_f-tap-down">
</g>
<g id="_x35_f-tap-up">
</g>
<g id="_x35_f-drag">
</g>
<g id="_x35_f-double-tap">
</g>
<g id="_x35_f-press-hold">
	<g>
		<path fill="none" stroke="#080808" stroke-width="2" stroke-miterlimit="10" d="M25.3041954,26.0054665V10.9257717
			c0-1.2492409,1.0127106-2.2619514,2.2619514-2.2619514h0.0000038c1.2492428,0,2.2619534,1.0127106,2.2619534,2.2619514v15.0796947
			"/>
		<path fill="none" stroke="#080808" stroke-width="2" stroke-miterlimit="10" d="M29.828104,16.2036667v-3.0159388
			c0-1.2492409,1.0127087-2.2619514,2.2619495-2.2619514h0.0000076c1.2492409,0,2.2619514,1.0127106,2.2619514,2.2619514v13.5717249
			"/>
		<path fill="none" stroke="#080808" stroke-width="2" stroke-miterlimit="10" d="M22.2882576,44.1011009
			c0-3.5814285-3.9938526-3.884819-6.7387495-10.8385315c-1.4137211-3.5814266-2.1205711-5.9219208-2.3090677-6.6287823
			c0,0,2.1002712-1.3060493,4.0840836,0.1256657c1.3041573,0.941206,1.9635029,3.5028858,2.905983,4.3197021
			c0.184351,0.159771,0.5497799,0.2042046,0.5497799,0.2042046V14.6956949c0-1.2492409,1.0127106-2.2619514,2.2619514-2.2619514
			h0.0000057c1.2492409,0,2.2619514,1.0127106,2.2619514,2.2619514v11.3097715"/>
		<path fill="none" stroke="#080808" stroke-width="2" stroke-linejoin="round" stroke-miterlimit="10" d="M34.3520126,16.9576511
			c0,0,0.9575119-0.8556252,2.2619553-0.7539825c1.2095146,0.0942459,1.9556465,1.036272,1.9556465,2.2855148
			c0,5.9427299,0.3051033,6.6427555,0.3051033,10.6578865c0,10.681448-2.2607536,10.6186161-2.2607536,14.954031"/>
	</g>
	<path fill="none" stroke="#080808" stroke-width="2" stroke-linejoin="round" stroke-miterlimit="10" d="M38.875351,24.0592728
		c2.2108536-0.8946705,3.7704926-3.062027,3.7704926-5.5936527c0-2.819849-1.9378395-5.1808825-4.5523949-5.8414936
		C37.8147087,9.6193247,35.33255,7.2595329,32.277771,7.1653309c-1.1052971-1.3830261-2.8035126-2.2714338-4.7116222-2.2714338
		c-2.5704231,0-4.7593441,1.6106386-5.6279163,3.8754463c-2.8033752,0.5192385-4.9278679,2.9726343-4.9278679,5.9263544
		c0,2.4008865,1.4027081,4.4741554,3.4333057,5.4449844"/>
	<path fill="none" stroke="#080808" stroke-width="2" stroke-linejoin="round" stroke-miterlimit="10" d="M15.5023947,34.2992973
		c-3.3313141,0-6.0318775-2.7005615-6.0318775-6.0318756s2.7005634-6.0318775,6.0318775-6.0318775
		c2.1699095,0,4.0722036,1.145792,5.1348658,2.8653622"/>
	<g>
		
			<circle fill="none" stroke="#080808" stroke-width="2" stroke-linecap="round" stroke-miterlimit="10" cx="10.9784851" cy="13.1877441" r="5.2778926"/>
		<polyline fill="none" stroke="#080808" stroke-width="2" stroke-linecap="round" stroke-miterlimit="10" points="
			10.978487,10.9257746 10.978487,13.1877279 12.4864559,15.4496822 		"/>
	</g>
</g>
<g id="_x35_f-press">
</g>
<g id="_x35_f-tap">
</g>
<g id="_x35_finger">
</g>
<g id="_x34_f_horizontal_dragin">
</g>
<g id="_x34_f-horizontal-dragout">
</g>
<g id="_x34_f-tap-down">
</g>
<g id="_x34_f-tap-up">
</g>
<g id="_x34_f-drag-left-right">
</g>
<g id="_x34_f-drag-up-down">
</g>
<g id="_x34_f-swipe-up">
</g>
<g id="_x34_f-swipe-down">
</g>
<g id="_x34_f-swipe-left">
</g>
<g id="_x33_f-drag">
</g>
<g id="_x33_f-double-tap_1_">
</g>
<g id="_x33_f-press-hold_1_">
</g>
<g id="_x33_f-press_1_">
</g>
<g id="_x33_fingers_1_">
</g>
<g id="_x32_f-tag-down">
</g>
<g id="_x32_f-drag-left-right_1_">
</g>
<g id="_x32_f-drag-up-down">
</g>
<g id="_x32_f-swipe-up_1_">
</g>
<g id="_x32_f-swipe-down_1_">
</g>
<g id="_x33_f-horizontal-drag">
</g>
<g id="_x33_f-horizotal-dragout">
</g>
<g id="_x32_f-swipe-right_1_">
</g>
<g id="_x32_f-swipe-left_1_">
</g>
<g id="_x33_f-tap-down">
</g>
<g id="_x33_f-tap-up">
</g>
<g id="_x33_f-double-tap">
</g>
<g id="_x33_f-press-hold">
</g>
<g id="_x33_f-press">
</g>
<g id="_x33_fingers">
</g>
<g id="_x32_f-horizotal-drag">
</g>
<g id="_x32_f-tap-down_1_">
</g>
<g id="_x32_f-drag-left-right">
</g>
<g id="_x32_fdrag-up-down">
</g>
<g id="_x32_f-swipe-up">
</g>
<g id="_x32_f-swipe-down">
</g>
<g id="_x32_f-swipe-right">
</g>
<g id="_x32_f-swipe-left">
</g>
<g id="pinch">
</g>
<g id="stretch">
</g>
<g id="_x32_f-tap-down">
</g>
<g id="_x32_f-tap-up">
</g>
<g id="_x32_f-tap-hold">
</g>
<g id="_x32_f-drag">
</g>
<g id="_x32_f-double-tap">
</g>
<g id="_x32_f-tap">
</g>
<g id="_x32_f-drag-twoside">
</g>
<g id="_x32_f-press">
</g>
<g id="sf-tap">
</g>
<g id="_x32_fingers">
</g>
<g id="if-tap-down">
</g>
<g id="if-tap-up">
</g>
<g id="_x31_f-tap-hold">
</g>
<g id="_x31_f-tag-drag">
</g>
<g id="_x31_f-swipe-up">
</g>
<g id="_x31_f-swipe-down">
</g>
<g id="_x31_f-swipe-right">
</g>
<g id="_x31_f-swipe-left">
</g>
<g id="horizontal-drag">
</g>
<g id="drag-left">
</g>
<g id="drag-up-down">
</g>
<g id="drag-down_1_">
</g>
<g id="drag-down">
</g>
<g id="press_hold">
</g>
<g id="double_tap">
</g>
<g id="tap">
</g>
<g id="press">
</g>
<g id="swipe-left-h">
</g>
<g id="show">
</g>
<g id="swipe-right-h">
</g>
<g id="_x34_f-swipe-right">
</g>
</svg>
