<?xml version="1.0" encoding="utf-8"?>
<!-- Generator: Adobe Illustrator 18.0.0, SVG Export Plug-In . SVG Version: 6.00 Build 0)  -->
<!DOCTYPE svg PUBLIC "-//W3C//DTD SVG 1.1//EN" "http://www.w3.org/Graphics/SVG/1.1/DTD/svg11.dtd">
<svg version="1.1" xmlns="http://www.w3.org/2000/svg" xmlns:xlink="http://www.w3.org/1999/xlink" x="0px" y="0px"
	 viewBox="0 0 48 48" enable-background="new 0 0 48 48" xml:space="preserve">
<g id="Layer_1">
</g>
<g id="scaning_identity">
</g>
<g id="finding-identity">
</g>
<g id="finger-security-open">
</g>
<g id="finger-security">
</g>
<g id="searching">
</g>
<g id="canceled">
	<g>
		<g>
			<path fill="none" stroke="#080808" stroke-width="2" stroke-linecap="round" stroke-miterlimit="10" d="M20.0172825,44.240448
				c4.9480152-5.2315369,6.9743576-12.2058945,6.5031185-22.6203098c-0.0941162-2.0799427-1.6878529-3.7699223-3.7699242-3.7699223
				s-3.7699223,1.687851-3.7699223,3.7699223c0,6.9022617,2.2148209,11.8281345-7.8611603,19.403017"/>
			<path fill="none" stroke="#080808" stroke-width="2" stroke-linecap="round" stroke-miterlimit="10" d="M25.2951756,44.240448
				c5.7019997-7.5406151,4.9951477-22.6203098,4.9951477-22.6203098c0-4.1641426-3.3757038-7.5398464-7.5398464-7.5398464
				s-7.5398464,3.3757038-7.5398464,7.5398464c0,5.5292206,1.9792099,11.6396389-7.6283183,16.7797337"/>
			<path fill="none" stroke="#080808" stroke-width="2" stroke-linecap="round" stroke-miterlimit="10" d="M30.8689747,42.7381287
				c3.1912708-8.771492,3.1912708-21.1179905,3.1912708-21.1179905c0-6.246213-5.0635548-11.3097696-11.3097687-11.3097696
				s-11.8752575,5.0265646-11.3097696,11.3097696c0.4731655,5.257391,2.120574,10.6590023-6.5411377,12.5353756"/>
			<path fill="none" stroke="#080808" stroke-width="2" stroke-linecap="round" stroke-miterlimit="10" d="M22.7504768,21.6201382
				c0,7.0002842,1.0367298,13.0533581-7.5786228,21.3179989"/>
			<path fill="none" stroke="#080808" stroke-width="2" stroke-linecap="round" stroke-miterlimit="10" d="M35.2007256,40.660656
				c1.6953354-6.4361763,2.6294441-15.8293438,2.6294441-19.0405178c0-4.1641426-1.687851-7.9340649-4.4167404-10.6629524
				c-2.7288857-2.7288885-6.4988098-4.4167404-10.6629524-4.4167404s-7.9340649,1.6878519-10.6629524,4.4167404
				S7.670784,17.4559956,7.670784,21.6201382c0,1.5299053,0.2278309,3.0065975,0.6514149,4.3980007
				c0.291173,0.9564533-0.2281485,1.9702091-1.1694446,2.3071785H7.152751
				c-1.0275173,0.3678341-2.1383338-0.214077-2.4531798-1.2590485c-0.5194988-1.7242146-0.7987103-3.5525646-0.7987103-5.4461308
				c0-5.2051773,2.1098151-9.9175816,5.5209246-13.3286915s8.1235142-5.5209246,13.3286915-5.5209246
				s9.9175835,2.1098151,13.3286934,5.5209246s5.5209236,8.1235142,5.5209236,13.3286915
				c0,3.4397259-0.3235931,9.4859276-1.4859695,14.6965923"/>
		</g>
	</g>
	<path fill="#FFFFFF" stroke="#080808" stroke-width="2" stroke-linecap="round" stroke-miterlimit="10" d="M22.8433418,37.4161491
		c-0.9323711-7.3980618,5.2891464-13.6195793,12.6872063-12.6872082c5.0407715,0.6352844,9.1113205,4.7058353,9.7466049,9.7466068
		c0.932373,7.3980598-5.2891464,13.6195755-12.6872063,12.6872063
		C27.5491772,46.5274696,23.4786243,42.4569168,22.8433418,37.4161491z"/>
	
		<line fill="none" stroke="#080808" stroke-width="2" stroke-linecap="round" stroke-miterlimit="10" x1="38.9611473" y1="31.0449467" x2="29.1593475" y2="40.8467484"/>
	
		<line fill="none" stroke="#080808" stroke-width="2" stroke-linecap="round" stroke-miterlimit="10" x1="38.9611473" y1="40.8467484" x2="29.1593475" y2="31.0449467"/>
</g>
<g id="success">
</g>
<g id="finger-add">
</g>
<g id="finger-minus">
</g>
<g id="finger-press">
</g>
<g id="_x35_f-long-tap">
</g>
<g id="_x35_f-pinch">
</g>
<g id="_x35_f-stretch">
</g>
<g id="_x35_f-swipe-up">
</g>
<g id="_x35_f-swipe-up_1_">
</g>
<g id="_x35_f-swipe-down">
</g>
<g id="_x35_f-swipe-right">
</g>
<g id="_x35_f-swipe-left">
</g>
<g id="_x35_f-drag-left-right">
</g>
<g id="_x35_f-drag-up-down">
</g>
<g id="_x35_f-tap-hold">
</g>
<g id="_x35_f-pinchout">
</g>
<g id="_x35_f-pinchin">
</g>
<g id="_x35_f-tap-down">
</g>
<g id="_x35_f-tap-up">
</g>
<g id="_x35_f-drag">
</g>
<g id="_x35_f-double-tap">
</g>
<g id="_x35_f-press-hold">
</g>
<g id="_x35_f-press">
</g>
<g id="_x35_f-tap">
</g>
<g id="_x35_finger">
</g>
<g id="_x34_f_horizontal_dragin">
</g>
<g id="_x34_f-horizontal-dragout">
</g>
<g id="_x34_f-tap-down">
</g>
<g id="_x34_f-tap-up">
</g>
<g id="_x34_f-drag-left-right">
</g>
<g id="_x34_f-drag-up-down">
</g>
<g id="_x34_f-swipe-up">
</g>
<g id="_x34_f-swipe-down">
</g>
<g id="_x34_f-swipe-left">
</g>
<g id="_x33_f-drag">
</g>
<g id="_x33_f-double-tap_1_">
</g>
<g id="_x33_f-press-hold_1_">
</g>
<g id="_x33_f-press_1_">
</g>
<g id="_x33_fingers_1_">
</g>
<g id="_x32_f-tag-down">
</g>
<g id="_x32_f-drag-left-right_1_">
</g>
<g id="_x32_f-drag-up-down">
</g>
<g id="_x32_f-swipe-up_1_">
</g>
<g id="_x32_f-swipe-down_1_">
</g>
<g id="_x33_f-horizontal-drag">
</g>
<g id="_x33_f-horizotal-dragout">
</g>
<g id="_x32_f-swipe-right_1_">
</g>
<g id="_x32_f-swipe-left_1_">
</g>
<g id="_x33_f-tap-down">
</g>
<g id="_x33_f-tap-up">
</g>
<g id="_x33_f-double-tap">
</g>
<g id="_x33_f-press-hold">
</g>
<g id="_x33_f-press">
</g>
<g id="_x33_fingers">
</g>
<g id="_x32_f-horizotal-drag">
</g>
<g id="_x32_f-tap-down_1_">
</g>
<g id="_x32_f-drag-left-right">
</g>
<g id="_x32_fdrag-up-down">
</g>
<g id="_x32_f-swipe-up">
</g>
<g id="_x32_f-swipe-down">
</g>
<g id="_x32_f-swipe-right">
</g>
<g id="_x32_f-swipe-left">
</g>
<g id="pinch">
</g>
<g id="stretch">
</g>
<g id="_x32_f-tap-down">
</g>
<g id="_x32_f-tap-up">
</g>
<g id="_x32_f-tap-hold">
</g>
<g id="_x32_f-drag">
</g>
<g id="_x32_f-double-tap">
</g>
<g id="_x32_f-tap">
</g>
<g id="_x32_f-drag-twoside">
</g>
<g id="_x32_f-press">
</g>
<g id="sf-tap">
</g>
<g id="_x32_fingers">
</g>
<g id="if-tap-down">
</g>
<g id="if-tap-up">
</g>
<g id="_x31_f-tap-hold">
</g>
<g id="_x31_f-tag-drag">
</g>
<g id="_x31_f-swipe-up">
</g>
<g id="_x31_f-swipe-down">
</g>
<g id="_x31_f-swipe-right">
</g>
<g id="_x31_f-swipe-left">
</g>
<g id="horizontal-drag">
</g>
<g id="drag-left">
</g>
<g id="drag-up-down">
</g>
<g id="drag-down_1_">
</g>
<g id="drag-down">
</g>
<g id="press_hold">
</g>
<g id="double_tap">
</g>
<g id="tap">
</g>
<g id="press">
</g>
<g id="swipe-left-h">
</g>
<g id="show">
</g>
<g id="swipe-right-h">
</g>
<g id="_x34_f-swipe-right">
</g>
</svg>
