<?xml version="1.0" encoding="utf-8"?>
<!-- Generator: Adobe Illustrator 18.0.0, SVG Export Plug-In . SVG Version: 6.00 Build 0)  -->
<!DOCTYPE svg PUBLIC "-//W3C//DTD SVG 1.1//EN" "http://www.w3.org/Graphics/SVG/1.1/DTD/svg11.dtd">
<svg version="1.1" xmlns="http://www.w3.org/2000/svg" xmlns:xlink="http://www.w3.org/1999/xlink" x="0px" y="0px"
	 viewBox="0 0 48 48" enable-background="new 0 0 48 48" xml:space="preserve">
<g id="Layer_1">
</g>
<g id="scaning_identity">
</g>
<g id="finding-identity">
</g>
<g id="finger-security-open">
</g>
<g id="finger-security">
</g>
<g id="searching">
</g>
<g id="canceled">
</g>
<g id="success">
</g>
<g id="finger-add">
</g>
<g id="finger-minus">
</g>
<g id="finger-press">
</g>
<g id="_x35_f-long-tap">
</g>
<g id="_x35_f-pinch">
</g>
<g id="_x35_f-stretch">
</g>
<g id="_x35_f-swipe-up">
</g>
<g id="_x35_f-swipe-up_1_">
</g>
<g id="_x35_f-swipe-down">
</g>
<g id="_x35_f-swipe-right">
</g>
<g id="_x35_f-swipe-left">
</g>
<g id="_x35_f-drag-left-right">
</g>
<g id="_x35_f-drag-up-down">
</g>
<g id="_x35_f-tap-hold">
</g>
<g id="_x35_f-pinchout">
</g>
<g id="_x35_f-pinchin">
</g>
<g id="_x35_f-tap-down">
</g>
<g id="_x35_f-tap-up">
</g>
<g id="_x35_f-drag">
</g>
<g id="_x35_f-double-tap">
	<g>
		<path fill="none" stroke="#080808" stroke-width="2" stroke-miterlimit="10" d="M22.4885235,28.0054665V12.9257717
			c0-1.2492409,1.0127106-2.2619514,2.2619514-2.2619514h0.0000038c1.2492428,0,2.2619534,1.0127106,2.2619534,2.2619514v15.0796947
			"/>
		<path fill="none" stroke="#080808" stroke-width="2" stroke-miterlimit="10" d="M27.0124321,18.2036667v-3.0159388
			c0-1.2492409,1.0127087-2.2619514,2.2619514-2.2619514h0.0000038c1.2492409,0,2.2619514,1.0127106,2.2619514,2.2619514v13.5717249
			"/>
		<path fill="none" stroke="#080808" stroke-width="2" stroke-miterlimit="10" d="M19.4725838,46.1011009
			c0-3.5814285-3.9938498-3.884819-6.7387476-10.8385315c-1.4137211-3.5814266-2.1205711-5.9219208-2.3090677-6.6287823
			c0,0,2.1002703-1.3060493,4.0840836,0.1256657c1.3041573,0.941206,1.9635029,3.5028877,2.905983,4.3197021
			c0.184351,0.159771,0.5497799,0.2042046,0.5497799,0.2042046V16.6956959c0-1.2492418,1.0127106-2.2619524,2.2619514-2.2619524
			h0.0000057c1.2492409,0,2.2619514,1.0127106,2.2619514,2.2619524v11.3097706"/>
		<path fill="none" stroke="#080808" stroke-width="2" stroke-linejoin="round" stroke-miterlimit="10" d="M31.5363388,18.9576511
			c0,0,0.9575157-0.8556252,2.2619553-0.7539825c1.2095146,0.0942459,1.9556465,1.036272,1.9556465,2.2855148
			c0,5.9427299,0.3051033,6.6427555,0.3051033,10.6578865c0,10.681448-2.2607498,10.6186161-2.2607498,14.954031"/>
	</g>
	<g>
		<path fill="none" stroke="#080808" stroke-width="2" stroke-linecap="round" stroke-linejoin="round" stroke-miterlimit="10" d="
			M38.6986847,23.9834557c0.712101-0.9902134,1.131485-2.2050495,1.131485-3.5178356
			c0-2.819849-1.9378357-5.1808825-4.5523949-5.8414936c-0.2787399-3.0048018-2.7608948-5.3645935-5.8156757-5.4587955
			c-1.105299-1.3830261-2.8035126-2.2714338-4.7116222-2.2714338c-2.5704231,0-4.7593441,1.6106386-5.6279163,3.8754463
			c-2.8033752,0.5192385-4.9278688,2.9726343-4.9278688,5.9263544c0,1.3317413,0.4315834,2.5626812,1.1625147,3.5605869"/>
		<path fill="none" stroke="#080808" stroke-width="2" stroke-linecap="round" stroke-linejoin="round" stroke-miterlimit="10" d="
			M10.4237385,35.8604279c-2.2100096-0.8950691-3.7688932-3.0619888-3.7688932-5.5930061
			c0-3.3313141,2.7005634-6.0318775,6.0318775-6.0318775c0.9599304,0,1.8674879,0.2242336,2.6731501,0.6231804"/>
		<path fill="none" stroke="#080808" stroke-width="2" stroke-linecap="round" stroke-linejoin="round" stroke-miterlimit="10" d="
			M41.7197037,26.067234c1.3871956-1.4453449,2.2412224-3.4168282,2.2412224-5.5900059
			c0-3.7527008-2.5504074-6.8948021-5.9914513-7.7739544c-0.3668518-3.9988375-3.6336441-7.1392856-7.6540699-7.2646513
			c-1.4546928-1.840553-3.6897297-3.0228603-6.2010117-3.0228603c-3.3829594,0-6.2638206,2.1434639-7.4069595,5.157505
			c-3.6895475,0.691011-6.4856148,3.9560285-6.4856148,7.8868861c0,1.9766788,0.7065668,3.7864895,1.8782463,5.185276"/>
		<path fill="none" stroke="#080808" stroke-width="2" stroke-linecap="round" stroke-linejoin="round" stroke-miterlimit="10" d="
			M12.9600306,39.9749756c-5.3613329,0-9.707552-4.3462219-9.707552-9.7075539c0-4.9244823,3.6667984-8.9925365,8.4190178-9.6227875
			"/>
	</g>
</g>
<g id="_x35_f-press-hold">
</g>
<g id="_x35_f-press">
</g>
<g id="_x35_f-tap">
</g>
<g id="_x35_finger">
</g>
<g id="_x34_f_horizontal_dragin">
</g>
<g id="_x34_f-horizontal-dragout">
</g>
<g id="_x34_f-tap-down">
</g>
<g id="_x34_f-tap-up">
</g>
<g id="_x34_f-drag-left-right">
</g>
<g id="_x34_f-drag-up-down">
</g>
<g id="_x34_f-swipe-up">
</g>
<g id="_x34_f-swipe-down">
</g>
<g id="_x34_f-swipe-left">
</g>
<g id="_x33_f-drag">
</g>
<g id="_x33_f-double-tap_1_">
</g>
<g id="_x33_f-press-hold_1_">
</g>
<g id="_x33_f-press_1_">
</g>
<g id="_x33_fingers_1_">
</g>
<g id="_x32_f-tag-down">
</g>
<g id="_x32_f-drag-left-right_1_">
</g>
<g id="_x32_f-drag-up-down">
</g>
<g id="_x32_f-swipe-up_1_">
</g>
<g id="_x32_f-swipe-down_1_">
</g>
<g id="_x33_f-horizontal-drag">
</g>
<g id="_x33_f-horizotal-dragout">
</g>
<g id="_x32_f-swipe-right_1_">
</g>
<g id="_x32_f-swipe-left_1_">
</g>
<g id="_x33_f-tap-down">
</g>
<g id="_x33_f-tap-up">
</g>
<g id="_x33_f-double-tap">
</g>
<g id="_x33_f-press-hold">
</g>
<g id="_x33_f-press">
</g>
<g id="_x33_fingers">
</g>
<g id="_x32_f-horizotal-drag">
</g>
<g id="_x32_f-tap-down_1_">
</g>
<g id="_x32_f-drag-left-right">
</g>
<g id="_x32_fdrag-up-down">
</g>
<g id="_x32_f-swipe-up">
</g>
<g id="_x32_f-swipe-down">
</g>
<g id="_x32_f-swipe-right">
</g>
<g id="_x32_f-swipe-left">
</g>
<g id="pinch">
</g>
<g id="stretch">
</g>
<g id="_x32_f-tap-down">
</g>
<g id="_x32_f-tap-up">
</g>
<g id="_x32_f-tap-hold">
</g>
<g id="_x32_f-drag">
</g>
<g id="_x32_f-double-tap">
</g>
<g id="_x32_f-tap">
</g>
<g id="_x32_f-drag-twoside">
</g>
<g id="_x32_f-press">
</g>
<g id="sf-tap">
</g>
<g id="_x32_fingers">
</g>
<g id="if-tap-down">
</g>
<g id="if-tap-up">
</g>
<g id="_x31_f-tap-hold">
</g>
<g id="_x31_f-tag-drag">
</g>
<g id="_x31_f-swipe-up">
</g>
<g id="_x31_f-swipe-down">
</g>
<g id="_x31_f-swipe-right">
</g>
<g id="_x31_f-swipe-left">
</g>
<g id="horizontal-drag">
</g>
<g id="drag-left">
</g>
<g id="drag-up-down">
</g>
<g id="drag-down_1_">
</g>
<g id="drag-down">
</g>
<g id="press_hold">
</g>
<g id="double_tap">
</g>
<g id="tap">
</g>
<g id="press">
</g>
<g id="swipe-left-h">
</g>
<g id="show">
</g>
<g id="swipe-right-h">
</g>
<g id="_x34_f-swipe-right">
</g>
</svg>
