<?xml version="1.0" encoding="utf-8"?>
<!-- Generator: Adobe Illustrator 18.0.0, SVG Export Plug-In . SVG Version: 6.00 Build 0)  -->
<!DOCTYPE svg PUBLIC "-//W3C//DTD SVG 1.1//EN" "http://www.w3.org/Graphics/SVG/1.1/DTD/svg11.dtd">
<svg version="1.1" xmlns="http://www.w3.org/2000/svg" xmlns:xlink="http://www.w3.org/1999/xlink" x="0px" y="0px"
	 viewBox="0 0 48 48" enable-background="new 0 0 48 48" xml:space="preserve">
<g id="Layer_1">
</g>
<g id="scaning_identity">
</g>
<g id="finding-identity">
</g>
<g id="finger-security-open">
</g>
<g id="finger-security">
</g>
<g id="searching">
</g>
<g id="canceled">
</g>
<g id="success">
</g>
<g id="finger-add">
</g>
<g id="finger-minus">
</g>
<g id="finger-press">
</g>
<g id="_x35_f-long-tap">
</g>
<g id="_x35_f-pinch">
</g>
<g id="_x35_f-stretch">
</g>
<g id="_x35_f-swipe-up">
</g>
<g id="_x35_f-swipe-up_1_">
</g>
<g id="_x35_f-swipe-down">
</g>
<g id="_x35_f-swipe-right">
</g>
<g id="_x35_f-swipe-left">
</g>
<g id="_x35_f-drag-left-right">
</g>
<g id="_x35_f-drag-up-down">
</g>
<g id="_x35_f-tap-hold">
</g>
<g id="_x35_f-pinchout">
</g>
<g id="_x35_f-pinchin">
</g>
<g id="_x35_f-tap-down">
</g>
<g id="_x35_f-tap-up">
</g>
<g id="_x35_f-drag">
</g>
<g id="_x35_f-double-tap">
</g>
<g id="_x35_f-press-hold">
</g>
<g id="_x35_f-press">
</g>
<g id="_x35_f-tap">
</g>
<g id="_x35_finger">
</g>
<g id="_x34_f_horizontal_dragin">
</g>
<g id="_x34_f-horizontal-dragout">
</g>
<g id="_x34_f-tap-down">
</g>
<g id="_x34_f-tap-up">
</g>
<g id="_x34_f-drag-left-right">
</g>
<g id="_x34_f-drag-up-down">
</g>
<g id="_x34_f-swipe-up">
</g>
<g id="_x34_f-swipe-down">
</g>
<g id="_x34_f-swipe-left">
</g>
<g id="_x33_f-drag">
</g>
<g id="_x33_f-double-tap_1_">
</g>
<g id="_x33_f-press-hold_1_">
</g>
<g id="_x33_f-press_1_">
</g>
<g id="_x33_fingers_1_">
</g>
<g id="_x32_f-tag-down">
</g>
<g id="_x32_f-drag-left-right_1_">
</g>
<g id="_x32_f-drag-up-down">
</g>
<g id="_x32_f-swipe-up_1_">
</g>
<g id="_x32_f-swipe-down_1_">
</g>
<g id="_x33_f-horizontal-drag">
</g>
<g id="_x33_f-horizotal-dragout">
</g>
<g id="_x32_f-swipe-right_1_">
</g>
<g id="_x32_f-swipe-left_1_">
</g>
<g id="_x33_f-tap-down">
</g>
<g id="_x33_f-tap-up">
</g>
<g id="_x33_f-double-tap">
</g>
<g id="_x33_f-press-hold">
	<g>
		<path fill="none" stroke="#080808" stroke-width="2" stroke-miterlimit="10" d="M23.1039295,28.4365444V11.0948954
			c0-1.2492418,1.0127087-2.2619514,2.2619514-2.2619514h0.0000038c1.2492409,0,2.2619514,1.0127096,2.2619514,2.2619514v17.3416481
			"/>
		<path fill="none" stroke="#080808" stroke-width="2" stroke-miterlimit="10" d="M27.6278362,28.4365444l0.7539845-12.8177385
			c0-1.2492418,1.0127106-2.2619524,2.2619534-2.2619524h0.0000038c1.2492409,0,2.2619534,1.0127106,2.2619534,2.2619524
			l-0.7539864,13.571723"/>
		<path fill="none" stroke="#080808" stroke-width="2" stroke-miterlimit="10" d="M18.5800209,45.7781906
			c0-2.3562012-4.5629377-4.9480247-7.3235683-9.9367981c-2.0783482-3.7558098-2.6956625-6.4306564-1.0311041-7.4048481
			c3.3281078-1.947794,5.2942944,5.9539738,7.600688,5.2778912c0-4.382534,0-19.6036015,0-19.6036015
			c0-1.2492418,1.0127106-2.2619514,2.2619514-2.2619514h0.0000038c1.2492428,0,2.2619514,1.0127096,2.2619514,2.2619514
			l0.7539864,14.3257103"/>
		<path fill="none" stroke="#080808" stroke-width="2" stroke-linejoin="round" stroke-miterlimit="10" d="M32.5800095,23.6140575
			c0,0,0.5292511-0.557045,1.8336906-0.4554024c1.2095146,0.0942459,1.7059097,1.0614891,1.9556465,2.2855129
			c1.9085236,9.3541222-1.9556465,18.5433121-1.9556465,20.3340225"/>
	</g>
	<path fill="none" stroke="#080808" stroke-width="2" stroke-linecap="round" stroke-linejoin="round" stroke-miterlimit="10" d="
		M35.1166229,19.6657467c0.9688683-1.0701771,1.5590286-2.4896393,1.5590286-4.0469408
		c0-3.1410198-2.401577-5.7188988-5.4682751-6.0033913c-0.6606102-2.6145563-3.0216446-4.5523944-5.8414936-4.5523944
		c-2.2325478,0-4.1771507,1.2160673-5.2200928,3.0188384c-0.0194664-0.0001841-0.0382881-0.0028992-0.0578003-0.0028992
		c-3.3313103,0-6.0318766,2.7005663-6.0318766,6.0318766c0,1.5106831,0.5553551,2.8916569,1.4730444,3.9498997"/>
	<g>
		
			<circle fill="none" stroke="#080808" stroke-width="2" stroke-linecap="round" stroke-miterlimit="10" cx="8.7782135" cy="11.848877" r="5.2778926"/>
		<polyline fill="none" stroke="#080808" stroke-width="2" stroke-linecap="round" stroke-miterlimit="10" points="
			8.7782202,9.5869284 8.7782202,11.8488827 10.2861891,14.110836 		"/>
	</g>
</g>
<g id="_x33_f-press">
</g>
<g id="_x33_fingers">
</g>
<g id="_x32_f-horizotal-drag">
</g>
<g id="_x32_f-tap-down_1_">
</g>
<g id="_x32_f-drag-left-right">
</g>
<g id="_x32_fdrag-up-down">
</g>
<g id="_x32_f-swipe-up">
</g>
<g id="_x32_f-swipe-down">
</g>
<g id="_x32_f-swipe-right">
</g>
<g id="_x32_f-swipe-left">
</g>
<g id="pinch">
</g>
<g id="stretch">
</g>
<g id="_x32_f-tap-down">
</g>
<g id="_x32_f-tap-up">
</g>
<g id="_x32_f-tap-hold">
</g>
<g id="_x32_f-drag">
</g>
<g id="_x32_f-double-tap">
</g>
<g id="_x32_f-tap">
</g>
<g id="_x32_f-drag-twoside">
</g>
<g id="_x32_f-press">
</g>
<g id="sf-tap">
</g>
<g id="_x32_fingers">
</g>
<g id="if-tap-down">
</g>
<g id="if-tap-up">
</g>
<g id="_x31_f-tap-hold">
</g>
<g id="_x31_f-tag-drag">
</g>
<g id="_x31_f-swipe-up">
</g>
<g id="_x31_f-swipe-down">
</g>
<g id="_x31_f-swipe-right">
</g>
<g id="_x31_f-swipe-left">
</g>
<g id="horizontal-drag">
</g>
<g id="drag-left">
</g>
<g id="drag-up-down">
</g>
<g id="drag-down_1_">
</g>
<g id="drag-down">
</g>
<g id="press_hold">
</g>
<g id="double_tap">
</g>
<g id="tap">
</g>
<g id="press">
</g>
<g id="swipe-left-h">
</g>
<g id="show">
</g>
<g id="swipe-right-h">
</g>
<g id="_x34_f-swipe-right">
</g>
</svg>
