<?xml version="1.0" encoding="utf-8"?>
<!-- Generator: Adobe Illustrator 18.0.0, SVG Export Plug-In . SVG Version: 6.00 Build 0)  -->
<!DOCTYPE svg PUBLIC "-//W3C//DTD SVG 1.1//EN" "http://www.w3.org/Graphics/SVG/1.1/DTD/svg11.dtd">
<svg version="1.1" xmlns="http://www.w3.org/2000/svg" xmlns:xlink="http://www.w3.org/1999/xlink" x="0px" y="0px"
	 viewBox="0 0 48 48" enable-background="new 0 0 48 48" xml:space="preserve">
<g id="Layer_1">
</g>
<g id="scaning_identity">
</g>
<g id="finding-identity">
</g>
<g id="finger-security-open">
</g>
<g id="finger-security">
</g>
<g id="searching">
</g>
<g id="canceled">
</g>
<g id="success">
</g>
<g id="finger-add">
</g>
<g id="finger-minus">
</g>
<g id="finger-press">
</g>
<g id="_x35_f-long-tap">
	<path fill="none" stroke="#000000" stroke-width="2" stroke-miterlimit="10" d="M47.0131187,33.3318596
		c-1.988884-3.0630627-2.1043015-3.864172-3.063755-7.0857162c-1.6868858-5.6640186-4.2501297-9.7846909-7.50354-12.2822647
		c-2.6601486-2.0421429-4.7717571-4.015852-6.3382912-4.8851042c-0.8345642-0.4630919-1.8336849-0.5073881-2.7082615-0.1251993
		l-1.5207405,0.6645613"/>
	<path fill="none" stroke="#000000" stroke-width="2" stroke-linecap="square" stroke-miterlimit="10" d="M37.6257744,46.9166756
		c-5.1522293-3.7515984-7.7693634-3.0135345-12.3144245-3.6908607c-5.4670467-0.814724-10.6654692-6.6620598-15.1020479-6.3646164
		c-3.1199055,0.2091675-2.3196793-3.9199486,0.8891125-5.0281849c3.0281725-1.0458527,6.8862715,0.2450047,9.532464,1.0276051
		c4.0366077,1.1938095,4.2326565-1.7666302,1.9152031-4.0840836c-3.3339977-3.3339977-10.9477215-11.367342-12.7063627-13.1920967
		c-0.982131-1.0190525-1.0706997-2.7937279-0.0502548-3.7194328c0.9849482-0.8935041,2.5678082-1.0215406,3.7398119,0.0269842
		c2.1535387,1.9266491,9.4596424,7.9334249,11.9699135,9.9730196"/>
	<path fill="none" stroke="#000000" stroke-width="2" stroke-miterlimit="10" d="M12.0249739,10.9657793
		c-0.2231731-3.7682819,2.8870134-4.4946237,4.6777277-3.0494862c3.3763752,2.7247944,12.5344486,10.6192884,12.5344486,10.6192884"
		/>
	<path fill="none" stroke="#000000" stroke-width="2" stroke-linecap="square" stroke-miterlimit="10" d="M17.1268024,7.6963811
		c1.4589081-3.2044349,4.1386356-1.9466062,4.8537903-1.2880573c3.1916447,2.9390187,10.2275639,8.7466717,10.2275639,8.7466717"/>
	<path fill="none" stroke="#000000" stroke-width="2" stroke-miterlimit="10" d="M14.5688391,37.4757385
		c-0.336194,0.4769211-0.7491837,0.9118118-1.2364798,1.2857704c-2.5931005,1.9899979-6.308434,1.5010834-8.2984295-1.0920181
		c-1.9899957-2.5930977-1.5010827-6.3084316,1.0920177-8.2984276s6.308434-1.5010834,8.2984295,1.0920181
		c0.3464947,0.4515057,0.617835,0.9370327,0.8160009,1.4415531"/>
	<path fill="none" stroke="#000000" stroke-width="2" stroke-linecap="square" stroke-miterlimit="10" d="M35.0284081,11.9471979
		c0.0961685-0.4276342,0.1469154-0.8724537,0.1469154-1.3291264c0-3.3313107-2.7005653-6.0318775-6.0318756-6.0318775
		c-1.2440929,0-2.399828,0.3771763-3.3601646,1.0226469c-0.8239346-2.3503115-3.0559311-4.0385857-5.6876507-4.0385857
		c-1.5064507,0-2.8805504,0.5559163-3.9376659,1.4690368c-0.8484621-0.4554558-1.8178186-0.7150521-2.848197-0.7150521
		c-3.3313103,0-6.031877,2.7005663-6.031877,6.031877c0,0.1865177,0.0113211,0.3702736,0.0278878,0.5524654
		c-1.3933344,1.1048832-2.2898417,2.8090343-2.2898417,4.7254276c0,3.3313103,2.7005663,6.0318775,6.0318775,6.0318775
		c0.6457663,0,1.2678318-0.1014786,1.851119-0.28936"/>
</g>
<g id="_x35_f-pinch">
</g>
<g id="_x35_f-stretch">
</g>
<g id="_x35_f-swipe-up">
</g>
<g id="_x35_f-swipe-up_1_">
</g>
<g id="_x35_f-swipe-down">
</g>
<g id="_x35_f-swipe-right">
</g>
<g id="_x35_f-swipe-left">
</g>
<g id="_x35_f-drag-left-right">
</g>
<g id="_x35_f-drag-up-down">
</g>
<g id="_x35_f-tap-hold">
</g>
<g id="_x35_f-pinchout">
</g>
<g id="_x35_f-pinchin">
</g>
<g id="_x35_f-tap-down">
</g>
<g id="_x35_f-tap-up">
</g>
<g id="_x35_f-drag">
</g>
<g id="_x35_f-double-tap">
</g>
<g id="_x35_f-press-hold">
</g>
<g id="_x35_f-press">
</g>
<g id="_x35_f-tap">
</g>
<g id="_x35_finger">
</g>
<g id="_x34_f_horizontal_dragin">
</g>
<g id="_x34_f-horizontal-dragout">
</g>
<g id="_x34_f-tap-down">
</g>
<g id="_x34_f-tap-up">
</g>
<g id="_x34_f-drag-left-right">
</g>
<g id="_x34_f-drag-up-down">
</g>
<g id="_x34_f-swipe-up">
</g>
<g id="_x34_f-swipe-down">
</g>
<g id="_x34_f-swipe-left">
</g>
<g id="_x33_f-drag">
</g>
<g id="_x33_f-double-tap_1_">
</g>
<g id="_x33_f-press-hold_1_">
</g>
<g id="_x33_f-press_1_">
</g>
<g id="_x33_fingers_1_">
</g>
<g id="_x32_f-tag-down">
</g>
<g id="_x32_f-drag-left-right_1_">
</g>
<g id="_x32_f-drag-up-down">
</g>
<g id="_x32_f-swipe-up_1_">
</g>
<g id="_x32_f-swipe-down_1_">
</g>
<g id="_x33_f-horizontal-drag">
</g>
<g id="_x33_f-horizotal-dragout">
</g>
<g id="_x32_f-swipe-right_1_">
</g>
<g id="_x32_f-swipe-left_1_">
</g>
<g id="_x33_f-tap-down">
</g>
<g id="_x33_f-tap-up">
</g>
<g id="_x33_f-double-tap">
</g>
<g id="_x33_f-press-hold">
</g>
<g id="_x33_f-press">
</g>
<g id="_x33_fingers">
</g>
<g id="_x32_f-horizotal-drag">
</g>
<g id="_x32_f-tap-down_1_">
</g>
<g id="_x32_f-drag-left-right">
</g>
<g id="_x32_fdrag-up-down">
</g>
<g id="_x32_f-swipe-up">
</g>
<g id="_x32_f-swipe-down">
</g>
<g id="_x32_f-swipe-right">
</g>
<g id="_x32_f-swipe-left">
</g>
<g id="pinch">
</g>
<g id="stretch">
</g>
<g id="_x32_f-tap-down">
</g>
<g id="_x32_f-tap-up">
</g>
<g id="_x32_f-tap-hold">
</g>
<g id="_x32_f-drag">
</g>
<g id="_x32_f-double-tap">
</g>
<g id="_x32_f-tap">
</g>
<g id="_x32_f-drag-twoside">
</g>
<g id="_x32_f-press">
</g>
<g id="sf-tap">
</g>
<g id="_x32_fingers">
</g>
<g id="if-tap-down">
</g>
<g id="if-tap-up">
</g>
<g id="_x31_f-tap-hold">
</g>
<g id="_x31_f-tag-drag">
</g>
<g id="_x31_f-swipe-up">
</g>
<g id="_x31_f-swipe-down">
</g>
<g id="_x31_f-swipe-right">
</g>
<g id="_x31_f-swipe-left">
</g>
<g id="horizontal-drag">
</g>
<g id="drag-left">
</g>
<g id="drag-up-down">
</g>
<g id="drag-down_1_">
</g>
<g id="drag-down">
</g>
<g id="press_hold">
</g>
<g id="double_tap">
</g>
<g id="tap">
</g>
<g id="press">
</g>
<g id="swipe-left-h">
</g>
<g id="show">
</g>
<g id="swipe-right-h">
</g>
<g id="_x34_f-swipe-right">
</g>
</svg>
